M48
; DRILL file {KiCad (6.0.7)} date Mon Oct  3 11:35:21 2022
; FORMAT={-:-/ absolute / inch / decimal}
; #@! TF.CreationDate,2022-10-03T11:35:21-05:00
; #@! TF.GenerationSoftware,Kicad,Pcbnew,(6.0.7)
; #@! TF.FileFunction,Plated,1,2,PTH
FMAT,2
INCH
; #@! TA.AperFunction,Plated,PTH,ComponentDrill
T1C0.0354
; #@! TA.AperFunction,Plated,PTH,ComponentDrill
T2C0.0400
; #@! TA.AperFunction,Plated,PTH,ComponentDrill
T3C0.0433
%
G90
G05
T1
X4.2126Y-1.6355
X4.2126Y-1.7355
X4.2126Y-1.8355
X4.2126Y-1.9355
X4.3126Y-1.6855
X4.3126Y-1.7855
X4.3126Y-1.8855
X4.3126Y-1.9855
T2
X4.7657Y-1.5059
X4.7657Y-2.1059
X4.8657Y-1.5059
X4.8657Y-2.1059
X4.9657Y-1.5059
X4.9657Y-2.1059
X5.0657Y-1.5059
X5.0657Y-2.1059
X5.1657Y-1.5059
X5.1657Y-2.1059
X5.2657Y-1.5059
X5.2657Y-2.1059
X5.3657Y-1.5059
X5.3657Y-2.1059
X5.4657Y-1.5059
X5.4657Y-2.1059
X5.5657Y-1.5059
X5.5657Y-2.1059
X5.6657Y-1.5059
X5.6657Y-2.1059
X5.7657Y-1.5059
X5.7657Y-2.1059
X5.8657Y-1.5059
X5.8657Y-2.1059
X5.9657Y-1.5059
X5.9657Y-2.1059
X6.0657Y-1.5059
X6.0657Y-2.1059
X6.1657Y-1.5059
X6.1657Y-2.1059
T3
X1.7913Y-2.6969
X1.7913Y-2.874
X2.0472Y-2.6969
X2.0472Y-2.874
X2.5394Y-2.687
X2.5394Y-2.8642
X2.7953Y-2.687
X2.7953Y-2.8642
X3.2972Y-2.4016
X3.2972Y-2.5787
X3.5531Y-2.4016
X3.5531Y-2.5787
X4.0453Y-2.5
X4.0453Y-2.6772
X4.3012Y-2.5
X4.3012Y-2.6772
X4.9311Y-2.7756
X4.9311Y-2.9528
X5.187Y-2.7756
X5.187Y-2.9528
X5.8169Y-2.4902
X5.8169Y-2.6673
X6.0728Y-2.4902
X6.0728Y-2.6673
X6.565Y-2.4016
X6.565Y-2.5787
X6.8209Y-2.4016
X6.8209Y-2.5787
X7.3228Y-2.6772
X7.3228Y-2.8543
X7.5787Y-2.6772
X7.5787Y-2.8543
X8.0709Y-2.7067
X8.0709Y-2.8839
X8.3268Y-2.7067
X8.3268Y-2.8839
T0
M30
