%TF.GenerationSoftware,KiCad,Pcbnew,(6.0.7)*%
%TF.CreationDate,2022-10-03T11:37:21-05:00*%
%TF.ProjectId,FieldBangerPCB,4669656c-6442-4616-9e67-65725043422e,rev?*%
%TF.SameCoordinates,Original*%
%TF.FileFunction,Drillmap*%
%TF.FilePolarity,Positive*%
%FSLAX45Y45*%
G04 Gerber Fmt 4.5, Leading zero omitted, Abs format (unit mm)*
G04 Created by KiCad (PCBNEW (6.0.7)) date 2022-10-03 11:37:21*
%MOMM*%
%LPD*%
G01*
G04 APERTURE LIST*
%ADD10C,0.100000*%
%ADD11C,0.200000*%
%ADD12C,0.090000*%
%ADD13C,0.101600*%
%ADD14C,0.110000*%
G04 APERTURE END LIST*
D10*
X4000000Y-6000000D02*
X6500000Y-6000000D01*
X3500000Y-7500000D02*
X3500000Y-6500000D01*
X8000000Y-4500000D02*
X8000000Y-3500000D01*
X21500000Y-8000000D02*
G75*
G03*
X22000000Y-7500000I0J500000D01*
G01*
X3500000Y-7500000D02*
G75*
G03*
X4000000Y-8000000I500000J0D01*
G01*
X17500000Y-3500000D02*
G75*
G03*
X17000000Y-3000000I-500000J0D01*
G01*
X17500000Y-3500000D02*
X17500000Y-4500000D01*
X8500000Y-3000000D02*
X17000000Y-3000000D01*
X17500000Y-4500000D02*
X19000000Y-6000000D01*
X8000000Y-4500000D02*
X6500000Y-6000000D01*
X22000000Y-6500000D02*
G75*
G03*
X21500000Y-6000000I-500000J0D01*
G01*
X8500000Y-3000000D02*
G75*
G03*
X8000000Y-3500000I0J-500000D01*
G01*
X21500000Y-8000000D02*
X4000000Y-8000000D01*
X19000000Y-6000000D02*
X21500000Y-6000000D01*
X22000000Y-6500000D02*
X22000000Y-7500000D01*
X4000000Y-6000000D02*
G75*
G03*
X3500000Y-6500000I0J-500000D01*
G01*
D11*
D12*
X10655000Y-4109250D02*
X10745000Y-4199250D01*
X10745000Y-4109250D02*
X10655000Y-4199250D01*
X10655000Y-4363250D02*
X10745000Y-4453250D01*
X10745000Y-4363250D02*
X10655000Y-4453250D01*
X10655000Y-4617250D02*
X10745000Y-4707250D01*
X10745000Y-4617250D02*
X10655000Y-4707250D01*
X10655000Y-4871250D02*
X10745000Y-4961250D01*
X10745000Y-4871250D02*
X10655000Y-4961250D01*
X10909000Y-4236250D02*
X10999000Y-4326250D01*
X10999000Y-4236250D02*
X10909000Y-4326250D01*
X10909000Y-4490250D02*
X10999000Y-4580250D01*
X10999000Y-4490250D02*
X10909000Y-4580250D01*
X10909000Y-4744250D02*
X10999000Y-4834250D01*
X10999000Y-4744250D02*
X10909000Y-4834250D01*
X10909000Y-4998250D02*
X10999000Y-5088250D01*
X10999000Y-4998250D02*
X10909000Y-5088250D01*
D13*
X12155800Y-3825000D02*
G75*
G03*
X12155800Y-3825000I-50800J0D01*
G01*
X12155800Y-5349000D02*
G75*
G03*
X12155800Y-5349000I-50800J0D01*
G01*
X12409800Y-3825000D02*
G75*
G03*
X12409800Y-3825000I-50800J0D01*
G01*
X12409800Y-5349000D02*
G75*
G03*
X12409800Y-5349000I-50800J0D01*
G01*
X12663800Y-3825000D02*
G75*
G03*
X12663800Y-3825000I-50800J0D01*
G01*
X12663800Y-5349000D02*
G75*
G03*
X12663800Y-5349000I-50800J0D01*
G01*
X12917800Y-3825000D02*
G75*
G03*
X12917800Y-3825000I-50800J0D01*
G01*
X12917800Y-5349000D02*
G75*
G03*
X12917800Y-5349000I-50800J0D01*
G01*
X13171800Y-3825000D02*
G75*
G03*
X13171800Y-3825000I-50800J0D01*
G01*
X13171800Y-5349000D02*
G75*
G03*
X13171800Y-5349000I-50800J0D01*
G01*
X13425800Y-3825000D02*
G75*
G03*
X13425800Y-3825000I-50800J0D01*
G01*
X13425800Y-5349000D02*
G75*
G03*
X13425800Y-5349000I-50800J0D01*
G01*
X13679800Y-3825000D02*
G75*
G03*
X13679800Y-3825000I-50800J0D01*
G01*
X13679800Y-5349000D02*
G75*
G03*
X13679800Y-5349000I-50800J0D01*
G01*
X13933800Y-3825000D02*
G75*
G03*
X13933800Y-3825000I-50800J0D01*
G01*
X13933800Y-5349000D02*
G75*
G03*
X13933800Y-5349000I-50800J0D01*
G01*
X14187800Y-3825000D02*
G75*
G03*
X14187800Y-3825000I-50800J0D01*
G01*
X14187800Y-5349000D02*
G75*
G03*
X14187800Y-5349000I-50800J0D01*
G01*
X14441800Y-3825000D02*
G75*
G03*
X14441800Y-3825000I-50800J0D01*
G01*
X14441800Y-5349000D02*
G75*
G03*
X14441800Y-5349000I-50800J0D01*
G01*
X14695800Y-3825000D02*
G75*
G03*
X14695800Y-3825000I-50800J0D01*
G01*
X14695800Y-5349000D02*
G75*
G03*
X14695800Y-5349000I-50800J0D01*
G01*
X14949800Y-3825000D02*
G75*
G03*
X14949800Y-3825000I-50800J0D01*
G01*
X14949800Y-5349000D02*
G75*
G03*
X14949800Y-5349000I-50800J0D01*
G01*
X15203800Y-3825000D02*
G75*
G03*
X15203800Y-3825000I-50800J0D01*
G01*
X15203800Y-5349000D02*
G75*
G03*
X15203800Y-5349000I-50800J0D01*
G01*
X15457800Y-3825000D02*
G75*
G03*
X15457800Y-3825000I-50800J0D01*
G01*
X15457800Y-5349000D02*
G75*
G03*
X15457800Y-5349000I-50800J0D01*
G01*
X15711800Y-3825000D02*
G75*
G03*
X15711800Y-3825000I-50800J0D01*
G01*
X15711800Y-5349000D02*
G75*
G03*
X15711800Y-5349000I-50800J0D01*
G01*
D14*
X4550000Y-6795000D02*
X4550000Y-6905000D01*
X4495000Y-6850000D02*
X4605000Y-6850000D01*
X4550000Y-7245000D02*
X4550000Y-7355000D01*
X4495000Y-7300000D02*
X4605000Y-7300000D01*
X5200000Y-6795000D02*
X5200000Y-6905000D01*
X5145000Y-6850000D02*
X5255000Y-6850000D01*
X5200000Y-7245000D02*
X5200000Y-7355000D01*
X5145000Y-7300000D02*
X5255000Y-7300000D01*
X6450000Y-6770000D02*
X6450000Y-6880000D01*
X6395000Y-6825000D02*
X6505000Y-6825000D01*
X6450000Y-7220000D02*
X6450000Y-7330000D01*
X6395000Y-7275000D02*
X6505000Y-7275000D01*
X7100000Y-6770000D02*
X7100000Y-6880000D01*
X7045000Y-6825000D02*
X7155000Y-6825000D01*
X7100000Y-7220000D02*
X7100000Y-7330000D01*
X7045000Y-7275000D02*
X7155000Y-7275000D01*
X8375000Y-6045000D02*
X8375000Y-6155000D01*
X8320000Y-6100000D02*
X8430000Y-6100000D01*
X8375000Y-6495000D02*
X8375000Y-6605000D01*
X8320000Y-6550000D02*
X8430000Y-6550000D01*
X9025000Y-6045000D02*
X9025000Y-6155000D01*
X8970000Y-6100000D02*
X9080000Y-6100000D01*
X9025000Y-6495000D02*
X9025000Y-6605000D01*
X8970000Y-6550000D02*
X9080000Y-6550000D01*
X10275000Y-6295000D02*
X10275000Y-6405000D01*
X10220000Y-6350000D02*
X10330000Y-6350000D01*
X10275000Y-6745000D02*
X10275000Y-6855000D01*
X10220000Y-6800000D02*
X10330000Y-6800000D01*
X10925000Y-6295000D02*
X10925000Y-6405000D01*
X10870000Y-6350000D02*
X10980000Y-6350000D01*
X10925000Y-6745000D02*
X10925000Y-6855000D01*
X10870000Y-6800000D02*
X10980000Y-6800000D01*
X12525000Y-6995000D02*
X12525000Y-7105000D01*
X12470000Y-7050000D02*
X12580000Y-7050000D01*
X12525000Y-7445000D02*
X12525000Y-7555000D01*
X12470000Y-7500000D02*
X12580000Y-7500000D01*
X13175000Y-6995000D02*
X13175000Y-7105000D01*
X13120000Y-7050000D02*
X13230000Y-7050000D01*
X13175000Y-7445000D02*
X13175000Y-7555000D01*
X13120000Y-7500000D02*
X13230000Y-7500000D01*
X14775000Y-6270000D02*
X14775000Y-6380000D01*
X14720000Y-6325000D02*
X14830000Y-6325000D01*
X14775000Y-6720000D02*
X14775000Y-6830000D01*
X14720000Y-6775000D02*
X14830000Y-6775000D01*
X15425000Y-6270000D02*
X15425000Y-6380000D01*
X15370000Y-6325000D02*
X15480000Y-6325000D01*
X15425000Y-6720000D02*
X15425000Y-6830000D01*
X15370000Y-6775000D02*
X15480000Y-6775000D01*
X16675000Y-6045000D02*
X16675000Y-6155000D01*
X16620000Y-6100000D02*
X16730000Y-6100000D01*
X16675000Y-6495000D02*
X16675000Y-6605000D01*
X16620000Y-6550000D02*
X16730000Y-6550000D01*
X17325000Y-6045000D02*
X17325000Y-6155000D01*
X17270000Y-6100000D02*
X17380000Y-6100000D01*
X17325000Y-6495000D02*
X17325000Y-6605000D01*
X17270000Y-6550000D02*
X17380000Y-6550000D01*
X18600000Y-6745000D02*
X18600000Y-6855000D01*
X18545000Y-6800000D02*
X18655000Y-6800000D01*
X18600000Y-7195000D02*
X18600000Y-7305000D01*
X18545000Y-7250000D02*
X18655000Y-7250000D01*
X19250000Y-6745000D02*
X19250000Y-6855000D01*
X19195000Y-6800000D02*
X19305000Y-6800000D01*
X19250000Y-7195000D02*
X19250000Y-7305000D01*
X19195000Y-7250000D02*
X19305000Y-7250000D01*
X20500000Y-6820000D02*
X20500000Y-6930000D01*
X20445000Y-6875000D02*
X20555000Y-6875000D01*
X20500000Y-7270000D02*
X20500000Y-7380000D01*
X20445000Y-7325000D02*
X20555000Y-7325000D01*
X21150000Y-6820000D02*
X21150000Y-6930000D01*
X21095000Y-6875000D02*
X21205000Y-6875000D01*
X21150000Y-7270000D02*
X21150000Y-7380000D01*
X21095000Y-7325000D02*
X21205000Y-7325000D01*
D11*
X3752619Y-8315476D02*
X3752619Y-8115476D01*
X3800238Y-8115476D01*
X3828809Y-8125000D01*
X3847857Y-8144048D01*
X3857381Y-8163095D01*
X3866905Y-8201190D01*
X3866905Y-8229762D01*
X3857381Y-8267857D01*
X3847857Y-8286905D01*
X3828809Y-8305952D01*
X3800238Y-8315476D01*
X3752619Y-8315476D01*
X3952619Y-8315476D02*
X3952619Y-8182143D01*
X3952619Y-8220238D02*
X3962143Y-8201190D01*
X3971667Y-8191667D01*
X3990714Y-8182143D01*
X4009762Y-8182143D01*
X4076428Y-8315476D02*
X4076428Y-8182143D01*
X4076428Y-8115476D02*
X4066905Y-8125000D01*
X4076428Y-8134524D01*
X4085952Y-8125000D01*
X4076428Y-8115476D01*
X4076428Y-8134524D01*
X4200238Y-8315476D02*
X4181190Y-8305952D01*
X4171667Y-8286905D01*
X4171667Y-8115476D01*
X4305000Y-8315476D02*
X4285952Y-8305952D01*
X4276429Y-8286905D01*
X4276429Y-8115476D01*
X4533571Y-8315476D02*
X4533571Y-8115476D01*
X4600238Y-8258333D01*
X4666905Y-8115476D01*
X4666905Y-8315476D01*
X4847857Y-8315476D02*
X4847857Y-8210714D01*
X4838333Y-8191667D01*
X4819286Y-8182143D01*
X4781190Y-8182143D01*
X4762143Y-8191667D01*
X4847857Y-8305952D02*
X4828810Y-8315476D01*
X4781190Y-8315476D01*
X4762143Y-8305952D01*
X4752619Y-8286905D01*
X4752619Y-8267857D01*
X4762143Y-8248809D01*
X4781190Y-8239286D01*
X4828810Y-8239286D01*
X4847857Y-8229762D01*
X4943095Y-8182143D02*
X4943095Y-8382143D01*
X4943095Y-8191667D02*
X4962143Y-8182143D01*
X5000238Y-8182143D01*
X5019286Y-8191667D01*
X5028810Y-8201190D01*
X5038333Y-8220238D01*
X5038333Y-8277381D01*
X5028810Y-8296428D01*
X5019286Y-8305952D01*
X5000238Y-8315476D01*
X4962143Y-8315476D01*
X4943095Y-8305952D01*
X5124048Y-8296428D02*
X5133571Y-8305952D01*
X5124048Y-8315476D01*
X5114524Y-8305952D01*
X5124048Y-8296428D01*
X5124048Y-8315476D01*
X5124048Y-8191667D02*
X5133571Y-8201190D01*
X5124048Y-8210714D01*
X5114524Y-8201190D01*
X5124048Y-8191667D01*
X5124048Y-8210714D01*
D12*
X3405000Y-8600000D02*
X3495000Y-8690000D01*
X3495000Y-8600000D02*
X3405000Y-8690000D01*
D11*
X3790714Y-8535476D02*
X3809762Y-8535476D01*
X3828809Y-8545000D01*
X3838333Y-8554524D01*
X3847857Y-8573571D01*
X3857381Y-8611667D01*
X3857381Y-8659286D01*
X3847857Y-8697381D01*
X3838333Y-8716429D01*
X3828809Y-8725952D01*
X3809762Y-8735476D01*
X3790714Y-8735476D01*
X3771667Y-8725952D01*
X3762143Y-8716429D01*
X3752619Y-8697381D01*
X3743095Y-8659286D01*
X3743095Y-8611667D01*
X3752619Y-8573571D01*
X3762143Y-8554524D01*
X3771667Y-8545000D01*
X3790714Y-8535476D01*
X3943095Y-8716429D02*
X3952619Y-8725952D01*
X3943095Y-8735476D01*
X3933571Y-8725952D01*
X3943095Y-8716429D01*
X3943095Y-8735476D01*
X4047857Y-8735476D02*
X4085952Y-8735476D01*
X4105000Y-8725952D01*
X4114524Y-8716429D01*
X4133571Y-8687857D01*
X4143095Y-8649762D01*
X4143095Y-8573571D01*
X4133571Y-8554524D01*
X4124048Y-8545000D01*
X4105000Y-8535476D01*
X4066905Y-8535476D01*
X4047857Y-8545000D01*
X4038333Y-8554524D01*
X4028809Y-8573571D01*
X4028809Y-8621190D01*
X4038333Y-8640238D01*
X4047857Y-8649762D01*
X4066905Y-8659286D01*
X4105000Y-8659286D01*
X4124048Y-8649762D01*
X4133571Y-8640238D01*
X4143095Y-8621190D01*
X4266905Y-8535476D02*
X4285952Y-8535476D01*
X4305000Y-8545000D01*
X4314524Y-8554524D01*
X4324048Y-8573571D01*
X4333571Y-8611667D01*
X4333571Y-8659286D01*
X4324048Y-8697381D01*
X4314524Y-8716429D01*
X4305000Y-8725952D01*
X4285952Y-8735476D01*
X4266905Y-8735476D01*
X4247857Y-8725952D01*
X4238333Y-8716429D01*
X4228810Y-8697381D01*
X4219286Y-8659286D01*
X4219286Y-8611667D01*
X4228810Y-8573571D01*
X4238333Y-8554524D01*
X4247857Y-8545000D01*
X4266905Y-8535476D01*
X4457381Y-8535476D02*
X4476429Y-8535476D01*
X4495476Y-8545000D01*
X4505000Y-8554524D01*
X4514524Y-8573571D01*
X4524048Y-8611667D01*
X4524048Y-8659286D01*
X4514524Y-8697381D01*
X4505000Y-8716429D01*
X4495476Y-8725952D01*
X4476429Y-8735476D01*
X4457381Y-8735476D01*
X4438333Y-8725952D01*
X4428810Y-8716429D01*
X4419286Y-8697381D01*
X4409762Y-8659286D01*
X4409762Y-8611667D01*
X4419286Y-8573571D01*
X4428810Y-8554524D01*
X4438333Y-8545000D01*
X4457381Y-8535476D01*
X4609762Y-8735476D02*
X4609762Y-8602143D01*
X4609762Y-8621190D02*
X4619286Y-8611667D01*
X4638333Y-8602143D01*
X4666905Y-8602143D01*
X4685952Y-8611667D01*
X4695476Y-8630714D01*
X4695476Y-8735476D01*
X4695476Y-8630714D02*
X4705000Y-8611667D01*
X4724048Y-8602143D01*
X4752619Y-8602143D01*
X4771667Y-8611667D01*
X4781190Y-8630714D01*
X4781190Y-8735476D01*
X4876429Y-8735476D02*
X4876429Y-8602143D01*
X4876429Y-8621190D02*
X4885952Y-8611667D01*
X4905000Y-8602143D01*
X4933571Y-8602143D01*
X4952619Y-8611667D01*
X4962143Y-8630714D01*
X4962143Y-8735476D01*
X4962143Y-8630714D02*
X4971667Y-8611667D01*
X4990714Y-8602143D01*
X5019286Y-8602143D01*
X5038333Y-8611667D01*
X5047857Y-8630714D01*
X5047857Y-8735476D01*
X5438333Y-8525952D02*
X5266905Y-8783095D01*
X5695476Y-8535476D02*
X5714524Y-8535476D01*
X5733571Y-8545000D01*
X5743095Y-8554524D01*
X5752619Y-8573571D01*
X5762143Y-8611667D01*
X5762143Y-8659286D01*
X5752619Y-8697381D01*
X5743095Y-8716429D01*
X5733571Y-8725952D01*
X5714524Y-8735476D01*
X5695476Y-8735476D01*
X5676428Y-8725952D01*
X5666905Y-8716429D01*
X5657381Y-8697381D01*
X5647857Y-8659286D01*
X5647857Y-8611667D01*
X5657381Y-8573571D01*
X5666905Y-8554524D01*
X5676428Y-8545000D01*
X5695476Y-8535476D01*
X5847857Y-8716429D02*
X5857381Y-8725952D01*
X5847857Y-8735476D01*
X5838333Y-8725952D01*
X5847857Y-8716429D01*
X5847857Y-8735476D01*
X5981190Y-8535476D02*
X6000238Y-8535476D01*
X6019286Y-8545000D01*
X6028809Y-8554524D01*
X6038333Y-8573571D01*
X6047857Y-8611667D01*
X6047857Y-8659286D01*
X6038333Y-8697381D01*
X6028809Y-8716429D01*
X6019286Y-8725952D01*
X6000238Y-8735476D01*
X5981190Y-8735476D01*
X5962143Y-8725952D01*
X5952619Y-8716429D01*
X5943095Y-8697381D01*
X5933571Y-8659286D01*
X5933571Y-8611667D01*
X5943095Y-8573571D01*
X5952619Y-8554524D01*
X5962143Y-8545000D01*
X5981190Y-8535476D01*
X6114524Y-8535476D02*
X6238333Y-8535476D01*
X6171667Y-8611667D01*
X6200238Y-8611667D01*
X6219286Y-8621190D01*
X6228809Y-8630714D01*
X6238333Y-8649762D01*
X6238333Y-8697381D01*
X6228809Y-8716429D01*
X6219286Y-8725952D01*
X6200238Y-8735476D01*
X6143095Y-8735476D01*
X6124048Y-8725952D01*
X6114524Y-8716429D01*
X6419286Y-8535476D02*
X6324048Y-8535476D01*
X6314524Y-8630714D01*
X6324048Y-8621190D01*
X6343095Y-8611667D01*
X6390714Y-8611667D01*
X6409762Y-8621190D01*
X6419286Y-8630714D01*
X6428809Y-8649762D01*
X6428809Y-8697381D01*
X6419286Y-8716429D01*
X6409762Y-8725952D01*
X6390714Y-8735476D01*
X6343095Y-8735476D01*
X6324048Y-8725952D01*
X6314524Y-8716429D01*
X6600238Y-8602143D02*
X6600238Y-8735476D01*
X6552619Y-8525952D02*
X6505000Y-8668810D01*
X6628809Y-8668810D01*
X6695476Y-8535476D02*
X6695476Y-8573571D01*
X6771667Y-8535476D02*
X6771667Y-8573571D01*
X7066905Y-8811667D02*
X7057381Y-8802143D01*
X7038333Y-8773571D01*
X7028809Y-8754524D01*
X7019286Y-8725952D01*
X7009762Y-8678333D01*
X7009762Y-8640238D01*
X7019286Y-8592619D01*
X7028809Y-8564048D01*
X7038333Y-8545000D01*
X7057381Y-8516429D01*
X7066905Y-8506905D01*
X7171667Y-8621190D02*
X7152619Y-8611667D01*
X7143095Y-8602143D01*
X7133571Y-8583095D01*
X7133571Y-8573571D01*
X7143095Y-8554524D01*
X7152619Y-8545000D01*
X7171667Y-8535476D01*
X7209762Y-8535476D01*
X7228809Y-8545000D01*
X7238333Y-8554524D01*
X7247857Y-8573571D01*
X7247857Y-8583095D01*
X7238333Y-8602143D01*
X7228809Y-8611667D01*
X7209762Y-8621190D01*
X7171667Y-8621190D01*
X7152619Y-8630714D01*
X7143095Y-8640238D01*
X7133571Y-8659286D01*
X7133571Y-8697381D01*
X7143095Y-8716429D01*
X7152619Y-8725952D01*
X7171667Y-8735476D01*
X7209762Y-8735476D01*
X7228809Y-8725952D01*
X7238333Y-8716429D01*
X7247857Y-8697381D01*
X7247857Y-8659286D01*
X7238333Y-8640238D01*
X7228809Y-8630714D01*
X7209762Y-8621190D01*
X7485952Y-8735476D02*
X7485952Y-8535476D01*
X7571667Y-8735476D02*
X7571667Y-8630714D01*
X7562143Y-8611667D01*
X7543095Y-8602143D01*
X7514524Y-8602143D01*
X7495476Y-8611667D01*
X7485952Y-8621190D01*
X7695476Y-8735476D02*
X7676428Y-8725952D01*
X7666905Y-8716429D01*
X7657381Y-8697381D01*
X7657381Y-8640238D01*
X7666905Y-8621190D01*
X7676428Y-8611667D01*
X7695476Y-8602143D01*
X7724048Y-8602143D01*
X7743095Y-8611667D01*
X7752619Y-8621190D01*
X7762143Y-8640238D01*
X7762143Y-8697381D01*
X7752619Y-8716429D01*
X7743095Y-8725952D01*
X7724048Y-8735476D01*
X7695476Y-8735476D01*
X7876428Y-8735476D02*
X7857381Y-8725952D01*
X7847857Y-8706905D01*
X7847857Y-8535476D01*
X8028809Y-8725952D02*
X8009762Y-8735476D01*
X7971667Y-8735476D01*
X7952619Y-8725952D01*
X7943095Y-8706905D01*
X7943095Y-8630714D01*
X7952619Y-8611667D01*
X7971667Y-8602143D01*
X8009762Y-8602143D01*
X8028809Y-8611667D01*
X8038333Y-8630714D01*
X8038333Y-8649762D01*
X7943095Y-8668810D01*
X8114524Y-8725952D02*
X8133571Y-8735476D01*
X8171667Y-8735476D01*
X8190714Y-8725952D01*
X8200238Y-8706905D01*
X8200238Y-8697381D01*
X8190714Y-8678333D01*
X8171667Y-8668810D01*
X8143095Y-8668810D01*
X8124048Y-8659286D01*
X8114524Y-8640238D01*
X8114524Y-8630714D01*
X8124048Y-8611667D01*
X8143095Y-8602143D01*
X8171667Y-8602143D01*
X8190714Y-8611667D01*
X8266905Y-8811667D02*
X8276428Y-8802143D01*
X8295476Y-8773571D01*
X8305000Y-8754524D01*
X8314524Y-8725952D01*
X8324048Y-8678333D01*
X8324048Y-8640238D01*
X8314524Y-8592619D01*
X8305000Y-8564048D01*
X8295476Y-8545000D01*
X8276428Y-8516429D01*
X8266905Y-8506905D01*
D13*
X3495000Y-8909000D02*
G75*
G03*
X3495000Y-8909000I-50800J0D01*
G01*
D11*
X3857381Y-8999476D02*
X3743095Y-8999476D01*
X3800238Y-8999476D02*
X3800238Y-8799476D01*
X3781190Y-8828048D01*
X3762143Y-8847095D01*
X3743095Y-8856619D01*
X3943095Y-8980429D02*
X3952619Y-8989952D01*
X3943095Y-8999476D01*
X3933571Y-8989952D01*
X3943095Y-8980429D01*
X3943095Y-8999476D01*
X4076428Y-8799476D02*
X4095476Y-8799476D01*
X4114524Y-8809000D01*
X4124048Y-8818524D01*
X4133571Y-8837571D01*
X4143095Y-8875667D01*
X4143095Y-8923286D01*
X4133571Y-8961381D01*
X4124048Y-8980429D01*
X4114524Y-8989952D01*
X4095476Y-8999476D01*
X4076428Y-8999476D01*
X4057381Y-8989952D01*
X4047857Y-8980429D01*
X4038333Y-8961381D01*
X4028809Y-8923286D01*
X4028809Y-8875667D01*
X4038333Y-8837571D01*
X4047857Y-8818524D01*
X4057381Y-8809000D01*
X4076428Y-8799476D01*
X4333571Y-8999476D02*
X4219286Y-8999476D01*
X4276429Y-8999476D02*
X4276429Y-8799476D01*
X4257381Y-8828048D01*
X4238333Y-8847095D01*
X4219286Y-8856619D01*
X4505000Y-8799476D02*
X4466905Y-8799476D01*
X4447857Y-8809000D01*
X4438333Y-8818524D01*
X4419286Y-8847095D01*
X4409762Y-8885190D01*
X4409762Y-8961381D01*
X4419286Y-8980429D01*
X4428810Y-8989952D01*
X4447857Y-8999476D01*
X4485952Y-8999476D01*
X4505000Y-8989952D01*
X4514524Y-8980429D01*
X4524048Y-8961381D01*
X4524048Y-8913762D01*
X4514524Y-8894714D01*
X4505000Y-8885190D01*
X4485952Y-8875667D01*
X4447857Y-8875667D01*
X4428810Y-8885190D01*
X4419286Y-8894714D01*
X4409762Y-8913762D01*
X4609762Y-8999476D02*
X4609762Y-8866143D01*
X4609762Y-8885190D02*
X4619286Y-8875667D01*
X4638333Y-8866143D01*
X4666905Y-8866143D01*
X4685952Y-8875667D01*
X4695476Y-8894714D01*
X4695476Y-8999476D01*
X4695476Y-8894714D02*
X4705000Y-8875667D01*
X4724048Y-8866143D01*
X4752619Y-8866143D01*
X4771667Y-8875667D01*
X4781190Y-8894714D01*
X4781190Y-8999476D01*
X4876429Y-8999476D02*
X4876429Y-8866143D01*
X4876429Y-8885190D02*
X4885952Y-8875667D01*
X4905000Y-8866143D01*
X4933571Y-8866143D01*
X4952619Y-8875667D01*
X4962143Y-8894714D01*
X4962143Y-8999476D01*
X4962143Y-8894714D02*
X4971667Y-8875667D01*
X4990714Y-8866143D01*
X5019286Y-8866143D01*
X5038333Y-8875667D01*
X5047857Y-8894714D01*
X5047857Y-8999476D01*
X5438333Y-8789952D02*
X5266905Y-9047095D01*
X5695476Y-8799476D02*
X5714524Y-8799476D01*
X5733571Y-8809000D01*
X5743095Y-8818524D01*
X5752619Y-8837571D01*
X5762143Y-8875667D01*
X5762143Y-8923286D01*
X5752619Y-8961381D01*
X5743095Y-8980429D01*
X5733571Y-8989952D01*
X5714524Y-8999476D01*
X5695476Y-8999476D01*
X5676428Y-8989952D01*
X5666905Y-8980429D01*
X5657381Y-8961381D01*
X5647857Y-8923286D01*
X5647857Y-8875667D01*
X5657381Y-8837571D01*
X5666905Y-8818524D01*
X5676428Y-8809000D01*
X5695476Y-8799476D01*
X5847857Y-8980429D02*
X5857381Y-8989952D01*
X5847857Y-8999476D01*
X5838333Y-8989952D01*
X5847857Y-8980429D01*
X5847857Y-8999476D01*
X5981190Y-8799476D02*
X6000238Y-8799476D01*
X6019286Y-8809000D01*
X6028809Y-8818524D01*
X6038333Y-8837571D01*
X6047857Y-8875667D01*
X6047857Y-8923286D01*
X6038333Y-8961381D01*
X6028809Y-8980429D01*
X6019286Y-8989952D01*
X6000238Y-8999476D01*
X5981190Y-8999476D01*
X5962143Y-8989952D01*
X5952619Y-8980429D01*
X5943095Y-8961381D01*
X5933571Y-8923286D01*
X5933571Y-8875667D01*
X5943095Y-8837571D01*
X5952619Y-8818524D01*
X5962143Y-8809000D01*
X5981190Y-8799476D01*
X6219286Y-8866143D02*
X6219286Y-8999476D01*
X6171667Y-8789952D02*
X6124048Y-8932810D01*
X6247857Y-8932810D01*
X6362143Y-8799476D02*
X6381190Y-8799476D01*
X6400238Y-8809000D01*
X6409762Y-8818524D01*
X6419286Y-8837571D01*
X6428809Y-8875667D01*
X6428809Y-8923286D01*
X6419286Y-8961381D01*
X6409762Y-8980429D01*
X6400238Y-8989952D01*
X6381190Y-8999476D01*
X6362143Y-8999476D01*
X6343095Y-8989952D01*
X6333571Y-8980429D01*
X6324048Y-8961381D01*
X6314524Y-8923286D01*
X6314524Y-8875667D01*
X6324048Y-8837571D01*
X6333571Y-8818524D01*
X6343095Y-8809000D01*
X6362143Y-8799476D01*
X6552619Y-8799476D02*
X6571667Y-8799476D01*
X6590714Y-8809000D01*
X6600238Y-8818524D01*
X6609762Y-8837571D01*
X6619286Y-8875667D01*
X6619286Y-8923286D01*
X6609762Y-8961381D01*
X6600238Y-8980429D01*
X6590714Y-8989952D01*
X6571667Y-8999476D01*
X6552619Y-8999476D01*
X6533571Y-8989952D01*
X6524048Y-8980429D01*
X6514524Y-8961381D01*
X6505000Y-8923286D01*
X6505000Y-8875667D01*
X6514524Y-8837571D01*
X6524048Y-8818524D01*
X6533571Y-8809000D01*
X6552619Y-8799476D01*
X6695476Y-8799476D02*
X6695476Y-8837571D01*
X6771667Y-8799476D02*
X6771667Y-8837571D01*
X7066905Y-9075667D02*
X7057381Y-9066143D01*
X7038333Y-9037571D01*
X7028809Y-9018524D01*
X7019286Y-8989952D01*
X7009762Y-8942333D01*
X7009762Y-8904238D01*
X7019286Y-8856619D01*
X7028809Y-8828048D01*
X7038333Y-8809000D01*
X7057381Y-8780429D01*
X7066905Y-8770905D01*
X7124048Y-8799476D02*
X7247857Y-8799476D01*
X7181190Y-8875667D01*
X7209762Y-8875667D01*
X7228809Y-8885190D01*
X7238333Y-8894714D01*
X7247857Y-8913762D01*
X7247857Y-8961381D01*
X7238333Y-8980429D01*
X7228809Y-8989952D01*
X7209762Y-8999476D01*
X7152619Y-8999476D01*
X7133571Y-8989952D01*
X7124048Y-8980429D01*
X7371667Y-8799476D02*
X7390714Y-8799476D01*
X7409762Y-8809000D01*
X7419286Y-8818524D01*
X7428809Y-8837571D01*
X7438333Y-8875667D01*
X7438333Y-8923286D01*
X7428809Y-8961381D01*
X7419286Y-8980429D01*
X7409762Y-8989952D01*
X7390714Y-8999476D01*
X7371667Y-8999476D01*
X7352619Y-8989952D01*
X7343095Y-8980429D01*
X7333571Y-8961381D01*
X7324048Y-8923286D01*
X7324048Y-8875667D01*
X7333571Y-8837571D01*
X7343095Y-8818524D01*
X7352619Y-8809000D01*
X7371667Y-8799476D01*
X7676428Y-8999476D02*
X7676428Y-8799476D01*
X7762143Y-8999476D02*
X7762143Y-8894714D01*
X7752619Y-8875667D01*
X7733571Y-8866143D01*
X7705000Y-8866143D01*
X7685952Y-8875667D01*
X7676428Y-8885190D01*
X7885952Y-8999476D02*
X7866905Y-8989952D01*
X7857381Y-8980429D01*
X7847857Y-8961381D01*
X7847857Y-8904238D01*
X7857381Y-8885190D01*
X7866905Y-8875667D01*
X7885952Y-8866143D01*
X7914524Y-8866143D01*
X7933571Y-8875667D01*
X7943095Y-8885190D01*
X7952619Y-8904238D01*
X7952619Y-8961381D01*
X7943095Y-8980429D01*
X7933571Y-8989952D01*
X7914524Y-8999476D01*
X7885952Y-8999476D01*
X8066905Y-8999476D02*
X8047857Y-8989952D01*
X8038333Y-8970905D01*
X8038333Y-8799476D01*
X8219286Y-8989952D02*
X8200238Y-8999476D01*
X8162143Y-8999476D01*
X8143095Y-8989952D01*
X8133571Y-8970905D01*
X8133571Y-8894714D01*
X8143095Y-8875667D01*
X8162143Y-8866143D01*
X8200238Y-8866143D01*
X8219286Y-8875667D01*
X8228809Y-8894714D01*
X8228809Y-8913762D01*
X8133571Y-8932810D01*
X8305000Y-8989952D02*
X8324048Y-8999476D01*
X8362143Y-8999476D01*
X8381190Y-8989952D01*
X8390714Y-8970905D01*
X8390714Y-8961381D01*
X8381190Y-8942333D01*
X8362143Y-8932810D01*
X8333571Y-8932810D01*
X8314524Y-8923286D01*
X8305000Y-8904238D01*
X8305000Y-8894714D01*
X8314524Y-8875667D01*
X8333571Y-8866143D01*
X8362143Y-8866143D01*
X8381190Y-8875667D01*
X8457381Y-9075667D02*
X8466905Y-9066143D01*
X8485952Y-9037571D01*
X8495476Y-9018524D01*
X8505000Y-8989952D01*
X8514524Y-8942333D01*
X8514524Y-8904238D01*
X8505000Y-8856619D01*
X8495476Y-8828048D01*
X8485952Y-8809000D01*
X8466905Y-8780429D01*
X8457381Y-8770905D01*
D14*
X3440000Y-9118000D02*
X3440000Y-9228000D01*
X3385000Y-9173000D02*
X3495000Y-9173000D01*
D11*
X3857381Y-9263476D02*
X3743095Y-9263476D01*
X3800238Y-9263476D02*
X3800238Y-9063476D01*
X3781190Y-9092048D01*
X3762143Y-9111095D01*
X3743095Y-9120619D01*
X3943095Y-9244429D02*
X3952619Y-9253952D01*
X3943095Y-9263476D01*
X3933571Y-9253952D01*
X3943095Y-9244429D01*
X3943095Y-9263476D01*
X4143095Y-9263476D02*
X4028809Y-9263476D01*
X4085952Y-9263476D02*
X4085952Y-9063476D01*
X4066905Y-9092048D01*
X4047857Y-9111095D01*
X4028809Y-9120619D01*
X4266905Y-9063476D02*
X4285952Y-9063476D01*
X4305000Y-9073000D01*
X4314524Y-9082524D01*
X4324048Y-9101571D01*
X4333571Y-9139667D01*
X4333571Y-9187286D01*
X4324048Y-9225381D01*
X4314524Y-9244429D01*
X4305000Y-9253952D01*
X4285952Y-9263476D01*
X4266905Y-9263476D01*
X4247857Y-9253952D01*
X4238333Y-9244429D01*
X4228810Y-9225381D01*
X4219286Y-9187286D01*
X4219286Y-9139667D01*
X4228810Y-9101571D01*
X4238333Y-9082524D01*
X4247857Y-9073000D01*
X4266905Y-9063476D01*
X4457381Y-9063476D02*
X4476429Y-9063476D01*
X4495476Y-9073000D01*
X4505000Y-9082524D01*
X4514524Y-9101571D01*
X4524048Y-9139667D01*
X4524048Y-9187286D01*
X4514524Y-9225381D01*
X4505000Y-9244429D01*
X4495476Y-9253952D01*
X4476429Y-9263476D01*
X4457381Y-9263476D01*
X4438333Y-9253952D01*
X4428810Y-9244429D01*
X4419286Y-9225381D01*
X4409762Y-9187286D01*
X4409762Y-9139667D01*
X4419286Y-9101571D01*
X4428810Y-9082524D01*
X4438333Y-9073000D01*
X4457381Y-9063476D01*
X4609762Y-9263476D02*
X4609762Y-9130143D01*
X4609762Y-9149190D02*
X4619286Y-9139667D01*
X4638333Y-9130143D01*
X4666905Y-9130143D01*
X4685952Y-9139667D01*
X4695476Y-9158714D01*
X4695476Y-9263476D01*
X4695476Y-9158714D02*
X4705000Y-9139667D01*
X4724048Y-9130143D01*
X4752619Y-9130143D01*
X4771667Y-9139667D01*
X4781190Y-9158714D01*
X4781190Y-9263476D01*
X4876429Y-9263476D02*
X4876429Y-9130143D01*
X4876429Y-9149190D02*
X4885952Y-9139667D01*
X4905000Y-9130143D01*
X4933571Y-9130143D01*
X4952619Y-9139667D01*
X4962143Y-9158714D01*
X4962143Y-9263476D01*
X4962143Y-9158714D02*
X4971667Y-9139667D01*
X4990714Y-9130143D01*
X5019286Y-9130143D01*
X5038333Y-9139667D01*
X5047857Y-9158714D01*
X5047857Y-9263476D01*
X5438333Y-9053952D02*
X5266905Y-9311095D01*
X5695476Y-9063476D02*
X5714524Y-9063476D01*
X5733571Y-9073000D01*
X5743095Y-9082524D01*
X5752619Y-9101571D01*
X5762143Y-9139667D01*
X5762143Y-9187286D01*
X5752619Y-9225381D01*
X5743095Y-9244429D01*
X5733571Y-9253952D01*
X5714524Y-9263476D01*
X5695476Y-9263476D01*
X5676428Y-9253952D01*
X5666905Y-9244429D01*
X5657381Y-9225381D01*
X5647857Y-9187286D01*
X5647857Y-9139667D01*
X5657381Y-9101571D01*
X5666905Y-9082524D01*
X5676428Y-9073000D01*
X5695476Y-9063476D01*
X5847857Y-9244429D02*
X5857381Y-9253952D01*
X5847857Y-9263476D01*
X5838333Y-9253952D01*
X5847857Y-9244429D01*
X5847857Y-9263476D01*
X5981190Y-9063476D02*
X6000238Y-9063476D01*
X6019286Y-9073000D01*
X6028809Y-9082524D01*
X6038333Y-9101571D01*
X6047857Y-9139667D01*
X6047857Y-9187286D01*
X6038333Y-9225381D01*
X6028809Y-9244429D01*
X6019286Y-9253952D01*
X6000238Y-9263476D01*
X5981190Y-9263476D01*
X5962143Y-9253952D01*
X5952619Y-9244429D01*
X5943095Y-9225381D01*
X5933571Y-9187286D01*
X5933571Y-9139667D01*
X5943095Y-9101571D01*
X5952619Y-9082524D01*
X5962143Y-9073000D01*
X5981190Y-9063476D01*
X6219286Y-9130143D02*
X6219286Y-9263476D01*
X6171667Y-9053952D02*
X6124048Y-9196810D01*
X6247857Y-9196810D01*
X6305000Y-9063476D02*
X6428809Y-9063476D01*
X6362143Y-9139667D01*
X6390714Y-9139667D01*
X6409762Y-9149190D01*
X6419286Y-9158714D01*
X6428809Y-9177762D01*
X6428809Y-9225381D01*
X6419286Y-9244429D01*
X6409762Y-9253952D01*
X6390714Y-9263476D01*
X6333571Y-9263476D01*
X6314524Y-9253952D01*
X6305000Y-9244429D01*
X6495476Y-9063476D02*
X6619286Y-9063476D01*
X6552619Y-9139667D01*
X6581190Y-9139667D01*
X6600238Y-9149190D01*
X6609762Y-9158714D01*
X6619286Y-9177762D01*
X6619286Y-9225381D01*
X6609762Y-9244429D01*
X6600238Y-9253952D01*
X6581190Y-9263476D01*
X6524048Y-9263476D01*
X6505000Y-9253952D01*
X6495476Y-9244429D01*
X6695476Y-9063476D02*
X6695476Y-9101571D01*
X6771667Y-9063476D02*
X6771667Y-9101571D01*
X7066905Y-9339667D02*
X7057381Y-9330143D01*
X7038333Y-9301571D01*
X7028809Y-9282524D01*
X7019286Y-9253952D01*
X7009762Y-9206333D01*
X7009762Y-9168238D01*
X7019286Y-9120619D01*
X7028809Y-9092048D01*
X7038333Y-9073000D01*
X7057381Y-9044429D01*
X7066905Y-9034905D01*
X7124048Y-9063476D02*
X7247857Y-9063476D01*
X7181190Y-9139667D01*
X7209762Y-9139667D01*
X7228809Y-9149190D01*
X7238333Y-9158714D01*
X7247857Y-9177762D01*
X7247857Y-9225381D01*
X7238333Y-9244429D01*
X7228809Y-9253952D01*
X7209762Y-9263476D01*
X7152619Y-9263476D01*
X7133571Y-9253952D01*
X7124048Y-9244429D01*
X7419286Y-9063476D02*
X7381190Y-9063476D01*
X7362143Y-9073000D01*
X7352619Y-9082524D01*
X7333571Y-9111095D01*
X7324048Y-9149190D01*
X7324048Y-9225381D01*
X7333571Y-9244429D01*
X7343095Y-9253952D01*
X7362143Y-9263476D01*
X7400238Y-9263476D01*
X7419286Y-9253952D01*
X7428809Y-9244429D01*
X7438333Y-9225381D01*
X7438333Y-9177762D01*
X7428809Y-9158714D01*
X7419286Y-9149190D01*
X7400238Y-9139667D01*
X7362143Y-9139667D01*
X7343095Y-9149190D01*
X7333571Y-9158714D01*
X7324048Y-9177762D01*
X7676428Y-9263476D02*
X7676428Y-9063476D01*
X7762143Y-9263476D02*
X7762143Y-9158714D01*
X7752619Y-9139667D01*
X7733571Y-9130143D01*
X7705000Y-9130143D01*
X7685952Y-9139667D01*
X7676428Y-9149190D01*
X7885952Y-9263476D02*
X7866905Y-9253952D01*
X7857381Y-9244429D01*
X7847857Y-9225381D01*
X7847857Y-9168238D01*
X7857381Y-9149190D01*
X7866905Y-9139667D01*
X7885952Y-9130143D01*
X7914524Y-9130143D01*
X7933571Y-9139667D01*
X7943095Y-9149190D01*
X7952619Y-9168238D01*
X7952619Y-9225381D01*
X7943095Y-9244429D01*
X7933571Y-9253952D01*
X7914524Y-9263476D01*
X7885952Y-9263476D01*
X8066905Y-9263476D02*
X8047857Y-9253952D01*
X8038333Y-9234905D01*
X8038333Y-9063476D01*
X8219286Y-9253952D02*
X8200238Y-9263476D01*
X8162143Y-9263476D01*
X8143095Y-9253952D01*
X8133571Y-9234905D01*
X8133571Y-9158714D01*
X8143095Y-9139667D01*
X8162143Y-9130143D01*
X8200238Y-9130143D01*
X8219286Y-9139667D01*
X8228809Y-9158714D01*
X8228809Y-9177762D01*
X8133571Y-9196810D01*
X8305000Y-9253952D02*
X8324048Y-9263476D01*
X8362143Y-9263476D01*
X8381190Y-9253952D01*
X8390714Y-9234905D01*
X8390714Y-9225381D01*
X8381190Y-9206333D01*
X8362143Y-9196810D01*
X8333571Y-9196810D01*
X8314524Y-9187286D01*
X8305000Y-9168238D01*
X8305000Y-9158714D01*
X8314524Y-9139667D01*
X8333571Y-9130143D01*
X8362143Y-9130143D01*
X8381190Y-9139667D01*
X8457381Y-9339667D02*
X8466905Y-9330143D01*
X8485952Y-9301571D01*
X8495476Y-9282524D01*
X8505000Y-9253952D01*
X8514524Y-9206333D01*
X8514524Y-9168238D01*
X8505000Y-9120619D01*
X8495476Y-9092048D01*
X8485952Y-9073000D01*
X8466905Y-9044429D01*
X8457381Y-9034905D01*
M02*
