%TF.GenerationSoftware,KiCad,Pcbnew,(6.0.7)*%
%TF.CreationDate,2022-10-06T11:27:24-05:00*%
%TF.ProjectId,FieldBangerPCB,4669656c-6442-4616-9e67-65725043422e,rev?*%
%TF.SameCoordinates,Original*%
%TF.FileFunction,Soldermask,Top*%
%TF.FilePolarity,Negative*%
%FSLAX46Y46*%
G04 Gerber Fmt 4.6, Leading zero omitted, Abs format (unit mm)*
G04 Created by KiCad (PCBNEW (6.0.7)) date 2022-10-06 11:27:24*
%MOMM*%
%LPD*%
G01*
G04 APERTURE LIST*
%ADD10C,2.000000*%
%ADD11C,1.850000*%
%ADD12C,1.727200*%
%ADD13R,1.727200X1.727200*%
%ADD14C,3.650000*%
%ADD15R,1.500000X1.500000*%
%ADD16C,1.500000*%
G04 APERTURE END LIST*
D10*
%TO.C,SW4*%
X166750000Y-61000000D03*
X173250000Y-61000000D03*
X173250000Y-65500000D03*
X166750000Y-65500000D03*
%TD*%
D11*
%TO.C,XA1*%
X159150000Y-53490000D03*
X159150000Y-38250000D03*
X118510000Y-38250000D03*
X118510000Y-53490000D03*
D12*
X154070000Y-38250000D03*
X128670000Y-38250000D03*
X148990000Y-38250000D03*
X146450000Y-38250000D03*
X143910000Y-38250000D03*
X141370000Y-38250000D03*
X138830000Y-38250000D03*
X136290000Y-38250000D03*
X133750000Y-38250000D03*
X131210000Y-38250000D03*
X151530000Y-38250000D03*
X123590000Y-53490000D03*
D13*
X121050000Y-53490000D03*
D12*
X131210000Y-53490000D03*
X133750000Y-53490000D03*
X136290000Y-53490000D03*
X138830000Y-53490000D03*
X141370000Y-53490000D03*
X143910000Y-53490000D03*
X146450000Y-53490000D03*
X148990000Y-53490000D03*
X151530000Y-53490000D03*
X154070000Y-53490000D03*
X156610000Y-53490000D03*
X156610000Y-38250000D03*
X128670000Y-53490000D03*
X123590000Y-38250000D03*
X126130000Y-53490000D03*
X126130000Y-38250000D03*
X121050000Y-38250000D03*
%TD*%
D10*
%TO.C,SW5*%
X205000000Y-68750000D03*
X211500000Y-68750000D03*
X205000000Y-73250000D03*
X211500000Y-73250000D03*
%TD*%
%TO.C,SW8*%
X154250000Y-63250000D03*
X147750000Y-63250000D03*
X147750000Y-67750000D03*
X154250000Y-67750000D03*
%TD*%
%TO.C,SW9*%
X192500000Y-68000000D03*
X186000000Y-68000000D03*
X186000000Y-72500000D03*
X192500000Y-72500000D03*
%TD*%
D14*
%TO.C,J1*%
X100650000Y-51702500D03*
X100650000Y-40272500D03*
D15*
X107000000Y-41542500D03*
D16*
X109540000Y-42812500D03*
X107000000Y-44082500D03*
X109540000Y-45352500D03*
X107000000Y-46622500D03*
X109540000Y-47892500D03*
X107000000Y-49162500D03*
X109540000Y-50432500D03*
%TD*%
D10*
%TO.C,SW3*%
X125250000Y-70500000D03*
X131750000Y-70500000D03*
X131750000Y-75000000D03*
X125250000Y-75000000D03*
%TD*%
%TO.C,SW6*%
X71000000Y-68250000D03*
X64500000Y-68250000D03*
X64500000Y-72750000D03*
X71000000Y-72750000D03*
%TD*%
%TO.C,SW2*%
X83750000Y-61000000D03*
X90250000Y-61000000D03*
X90250000Y-65500000D03*
X83750000Y-65500000D03*
%TD*%
%TO.C,SW7*%
X109250000Y-63500000D03*
X102750000Y-63500000D03*
X109250000Y-68000000D03*
X102750000Y-68000000D03*
%TD*%
%TO.C,SW1*%
X52000000Y-68500000D03*
X45500000Y-68500000D03*
X45500000Y-73000000D03*
X52000000Y-73000000D03*
%TD*%
M02*
