%TF.GenerationSoftware,KiCad,Pcbnew,(6.0.7)*%
%TF.CreationDate,2022-10-09T17:55:32-05:00*%
%TF.ProjectId,FieldBangerPCB,4669656c-6442-4616-9e67-65725043422e,rev?*%
%TF.SameCoordinates,Original*%
%TF.FileFunction,Drillmap*%
%TF.FilePolarity,Positive*%
%FSLAX45Y45*%
G04 Gerber Fmt 4.5, Leading zero omitted, Abs format (unit mm)*
G04 Created by KiCad (PCBNEW (6.0.7)) date 2022-10-09 17:55:32*
%MOMM*%
%LPD*%
G01*
G04 APERTURE LIST*
%ADD10C,0.100000*%
%ADD11C,0.200000*%
%ADD12C,0.080000*%
%ADD13C,0.090000*%
%ADD14C,0.101600*%
%ADD15C,0.110000*%
G04 APERTURE END LIST*
D10*
X4000000Y-6000000D02*
X6500000Y-6000000D01*
X3500000Y-7500000D02*
X3500000Y-6500000D01*
X8000000Y-4500000D02*
X8000000Y-3500000D01*
X21500000Y-8000000D02*
G75*
G03*
X22000000Y-7500000I0J500000D01*
G01*
X3500000Y-7500000D02*
G75*
G03*
X4000000Y-8000000I500000J0D01*
G01*
X17500000Y-3500000D02*
G75*
G03*
X17000000Y-3000000I-500000J0D01*
G01*
X17500000Y-3500000D02*
X17500000Y-4500000D01*
X8500000Y-3000000D02*
X17000000Y-3000000D01*
X17500000Y-4500000D02*
X19000000Y-6000000D01*
X8000000Y-4500000D02*
X6500000Y-6000000D01*
X22000000Y-6500000D02*
G75*
G03*
X21500000Y-6000000I-500000J0D01*
G01*
X8500000Y-3000000D02*
G75*
G03*
X8000000Y-3500000I0J-500000D01*
G01*
X21500000Y-8000000D02*
X4000000Y-8000000D01*
X19000000Y-6000000D02*
X21500000Y-6000000D01*
X22000000Y-6500000D02*
X22000000Y-7500000D01*
X4000000Y-6000000D02*
G75*
G03*
X3500000Y-6500000I0J-500000D01*
G01*
D11*
D12*
X11285000Y-3878238D02*
X11365000Y-3958238D01*
X11365000Y-3878238D02*
X11285000Y-3958238D01*
X11285000Y-4128238D02*
X11365000Y-4208238D01*
X11365000Y-4128238D02*
X11285000Y-4208238D01*
D13*
X10580000Y-4127000D02*
G75*
G03*
X10580000Y-4127000I-45000J0D01*
G01*
X10580000Y-4381000D02*
G75*
G03*
X10580000Y-4381000I-45000J0D01*
G01*
X10580000Y-4635000D02*
G75*
G03*
X10580000Y-4635000I-45000J0D01*
G01*
X10580000Y-4889000D02*
G75*
G03*
X10580000Y-4889000I-45000J0D01*
G01*
X10834000Y-4254000D02*
G75*
G03*
X10834000Y-4254000I-45000J0D01*
G01*
X10834000Y-4508000D02*
G75*
G03*
X10834000Y-4508000I-45000J0D01*
G01*
X10834000Y-4762000D02*
G75*
G03*
X10834000Y-4762000I-45000J0D01*
G01*
X10834000Y-5016000D02*
G75*
G03*
X10834000Y-5016000I-45000J0D01*
G01*
D14*
X12105000Y-3774200D02*
X12105000Y-3875800D01*
X12054200Y-3825000D02*
X12155800Y-3825000D01*
X12105000Y-5298200D02*
X12105000Y-5399800D01*
X12054200Y-5349000D02*
X12155800Y-5349000D01*
X12359000Y-3774200D02*
X12359000Y-3875800D01*
X12308200Y-3825000D02*
X12409800Y-3825000D01*
X12359000Y-5298200D02*
X12359000Y-5399800D01*
X12308200Y-5349000D02*
X12409800Y-5349000D01*
X12613000Y-3774200D02*
X12613000Y-3875800D01*
X12562200Y-3825000D02*
X12663800Y-3825000D01*
X12613000Y-5298200D02*
X12613000Y-5399800D01*
X12562200Y-5349000D02*
X12663800Y-5349000D01*
X12867000Y-3774200D02*
X12867000Y-3875800D01*
X12816200Y-3825000D02*
X12917800Y-3825000D01*
X12867000Y-5298200D02*
X12867000Y-5399800D01*
X12816200Y-5349000D02*
X12917800Y-5349000D01*
X13121000Y-3774200D02*
X13121000Y-3875800D01*
X13070200Y-3825000D02*
X13171800Y-3825000D01*
X13121000Y-5298200D02*
X13121000Y-5399800D01*
X13070200Y-5349000D02*
X13171800Y-5349000D01*
X13375000Y-3774200D02*
X13375000Y-3875800D01*
X13324200Y-3825000D02*
X13425800Y-3825000D01*
X13375000Y-5298200D02*
X13375000Y-5399800D01*
X13324200Y-5349000D02*
X13425800Y-5349000D01*
X13629000Y-3774200D02*
X13629000Y-3875800D01*
X13578200Y-3825000D02*
X13679800Y-3825000D01*
X13629000Y-5298200D02*
X13629000Y-5399800D01*
X13578200Y-5349000D02*
X13679800Y-5349000D01*
X13883000Y-3774200D02*
X13883000Y-3875800D01*
X13832200Y-3825000D02*
X13933800Y-3825000D01*
X13883000Y-5298200D02*
X13883000Y-5399800D01*
X13832200Y-5349000D02*
X13933800Y-5349000D01*
X14137000Y-3774200D02*
X14137000Y-3875800D01*
X14086200Y-3825000D02*
X14187800Y-3825000D01*
X14137000Y-5298200D02*
X14137000Y-5399800D01*
X14086200Y-5349000D02*
X14187800Y-5349000D01*
X14391000Y-3774200D02*
X14391000Y-3875800D01*
X14340200Y-3825000D02*
X14441800Y-3825000D01*
X14391000Y-5298200D02*
X14391000Y-5399800D01*
X14340200Y-5349000D02*
X14441800Y-5349000D01*
X14645000Y-3774200D02*
X14645000Y-3875800D01*
X14594200Y-3825000D02*
X14695800Y-3825000D01*
X14645000Y-5298200D02*
X14645000Y-5399800D01*
X14594200Y-5349000D02*
X14695800Y-5349000D01*
X14899000Y-3774200D02*
X14899000Y-3875800D01*
X14848200Y-3825000D02*
X14949800Y-3825000D01*
X14899000Y-5298200D02*
X14899000Y-5399800D01*
X14848200Y-5349000D02*
X14949800Y-5349000D01*
X15153000Y-3774200D02*
X15153000Y-3875800D01*
X15102200Y-3825000D02*
X15203800Y-3825000D01*
X15153000Y-5298200D02*
X15153000Y-5399800D01*
X15102200Y-5349000D02*
X15203800Y-5349000D01*
X15407000Y-3774200D02*
X15407000Y-3875800D01*
X15356200Y-3825000D02*
X15457800Y-3825000D01*
X15407000Y-5298200D02*
X15407000Y-5399800D01*
X15356200Y-5349000D02*
X15457800Y-5349000D01*
X15661000Y-3774200D02*
X15661000Y-3875800D01*
X15610200Y-3825000D02*
X15711800Y-3825000D01*
X15661000Y-5298200D02*
X15661000Y-5399800D01*
X15610200Y-5349000D02*
X15711800Y-5349000D01*
D15*
X4588891Y-6888891D02*
X4588891Y-6811109D01*
X4511109Y-6811109D01*
X4511109Y-6888891D01*
X4588891Y-6888891D01*
X4588891Y-7338891D02*
X4588891Y-7261109D01*
X4511109Y-7261109D01*
X4511109Y-7338891D01*
X4588891Y-7338891D01*
X5238891Y-6888891D02*
X5238891Y-6811109D01*
X5161109Y-6811109D01*
X5161109Y-6888891D01*
X5238891Y-6888891D01*
X5238891Y-7338891D02*
X5238891Y-7261109D01*
X5161109Y-7261109D01*
X5161109Y-7338891D01*
X5238891Y-7338891D01*
X6488891Y-6863891D02*
X6488891Y-6786109D01*
X6411109Y-6786109D01*
X6411109Y-6863891D01*
X6488891Y-6863891D01*
X6488891Y-7313891D02*
X6488891Y-7236109D01*
X6411109Y-7236109D01*
X6411109Y-7313891D01*
X6488891Y-7313891D01*
X7138891Y-6863891D02*
X7138891Y-6786109D01*
X7061109Y-6786109D01*
X7061109Y-6863891D01*
X7138891Y-6863891D01*
X7138891Y-7313891D02*
X7138891Y-7236109D01*
X7061109Y-7236109D01*
X7061109Y-7313891D01*
X7138891Y-7313891D01*
X8413891Y-6138891D02*
X8413891Y-6061109D01*
X8336109Y-6061109D01*
X8336109Y-6138891D01*
X8413891Y-6138891D01*
X8413891Y-6588891D02*
X8413891Y-6511109D01*
X8336109Y-6511109D01*
X8336109Y-6588891D01*
X8413891Y-6588891D01*
X9063891Y-6138891D02*
X9063891Y-6061109D01*
X8986109Y-6061109D01*
X8986109Y-6138891D01*
X9063891Y-6138891D01*
X9063891Y-6588891D02*
X9063891Y-6511109D01*
X8986109Y-6511109D01*
X8986109Y-6588891D01*
X9063891Y-6588891D01*
X10313891Y-6388891D02*
X10313891Y-6311109D01*
X10236109Y-6311109D01*
X10236109Y-6388891D01*
X10313891Y-6388891D01*
X10313891Y-6838891D02*
X10313891Y-6761109D01*
X10236109Y-6761109D01*
X10236109Y-6838891D01*
X10313891Y-6838891D01*
X10963891Y-6388891D02*
X10963891Y-6311109D01*
X10886109Y-6311109D01*
X10886109Y-6388891D01*
X10963891Y-6388891D01*
X10963891Y-6838891D02*
X10963891Y-6761109D01*
X10886109Y-6761109D01*
X10886109Y-6838891D01*
X10963891Y-6838891D01*
X12563891Y-7088891D02*
X12563891Y-7011109D01*
X12486109Y-7011109D01*
X12486109Y-7088891D01*
X12563891Y-7088891D01*
X12563891Y-7538891D02*
X12563891Y-7461109D01*
X12486109Y-7461109D01*
X12486109Y-7538891D01*
X12563891Y-7538891D01*
X13213891Y-7088891D02*
X13213891Y-7011109D01*
X13136109Y-7011109D01*
X13136109Y-7088891D01*
X13213891Y-7088891D01*
X13213891Y-7538891D02*
X13213891Y-7461109D01*
X13136109Y-7461109D01*
X13136109Y-7538891D01*
X13213891Y-7538891D01*
X14813891Y-6363891D02*
X14813891Y-6286109D01*
X14736109Y-6286109D01*
X14736109Y-6363891D01*
X14813891Y-6363891D01*
X14813891Y-6813891D02*
X14813891Y-6736109D01*
X14736109Y-6736109D01*
X14736109Y-6813891D01*
X14813891Y-6813891D01*
X15463891Y-6363891D02*
X15463891Y-6286109D01*
X15386109Y-6286109D01*
X15386109Y-6363891D01*
X15463891Y-6363891D01*
X15463891Y-6813891D02*
X15463891Y-6736109D01*
X15386109Y-6736109D01*
X15386109Y-6813891D01*
X15463891Y-6813891D01*
X16713891Y-6138891D02*
X16713891Y-6061109D01*
X16636109Y-6061109D01*
X16636109Y-6138891D01*
X16713891Y-6138891D01*
X16713891Y-6588891D02*
X16713891Y-6511109D01*
X16636109Y-6511109D01*
X16636109Y-6588891D01*
X16713891Y-6588891D01*
X17363891Y-6138891D02*
X17363891Y-6061109D01*
X17286109Y-6061109D01*
X17286109Y-6138891D01*
X17363891Y-6138891D01*
X17363891Y-6588891D02*
X17363891Y-6511109D01*
X17286109Y-6511109D01*
X17286109Y-6588891D01*
X17363891Y-6588891D01*
X18638891Y-6838891D02*
X18638891Y-6761109D01*
X18561109Y-6761109D01*
X18561109Y-6838891D01*
X18638891Y-6838891D01*
X18638891Y-7288891D02*
X18638891Y-7211109D01*
X18561109Y-7211109D01*
X18561109Y-7288891D01*
X18638891Y-7288891D01*
X19288891Y-6838891D02*
X19288891Y-6761109D01*
X19211109Y-6761109D01*
X19211109Y-6838891D01*
X19288891Y-6838891D01*
X19288891Y-7288891D02*
X19288891Y-7211109D01*
X19211109Y-7211109D01*
X19211109Y-7288891D01*
X19288891Y-7288891D01*
X20538891Y-6913891D02*
X20538891Y-6836109D01*
X20461109Y-6836109D01*
X20461109Y-6913891D01*
X20538891Y-6913891D01*
X20538891Y-7363891D02*
X20538891Y-7286109D01*
X20461109Y-7286109D01*
X20461109Y-7363891D01*
X20538891Y-7363891D01*
X21188891Y-6913891D02*
X21188891Y-6836109D01*
X21111109Y-6836109D01*
X21111109Y-6913891D01*
X21188891Y-6913891D01*
X21188891Y-7363891D02*
X21188891Y-7286109D01*
X21111109Y-7286109D01*
X21111109Y-7363891D01*
X21188891Y-7363891D01*
D11*
X3752619Y-8315476D02*
X3752619Y-8115476D01*
X3800238Y-8115476D01*
X3828809Y-8125000D01*
X3847857Y-8144048D01*
X3857381Y-8163095D01*
X3866905Y-8201190D01*
X3866905Y-8229762D01*
X3857381Y-8267857D01*
X3847857Y-8286905D01*
X3828809Y-8305952D01*
X3800238Y-8315476D01*
X3752619Y-8315476D01*
X3952619Y-8315476D02*
X3952619Y-8182143D01*
X3952619Y-8220238D02*
X3962143Y-8201190D01*
X3971667Y-8191667D01*
X3990714Y-8182143D01*
X4009762Y-8182143D01*
X4076428Y-8315476D02*
X4076428Y-8182143D01*
X4076428Y-8115476D02*
X4066905Y-8125000D01*
X4076428Y-8134524D01*
X4085952Y-8125000D01*
X4076428Y-8115476D01*
X4076428Y-8134524D01*
X4200238Y-8315476D02*
X4181190Y-8305952D01*
X4171667Y-8286905D01*
X4171667Y-8115476D01*
X4305000Y-8315476D02*
X4285952Y-8305952D01*
X4276429Y-8286905D01*
X4276429Y-8115476D01*
X4533571Y-8315476D02*
X4533571Y-8115476D01*
X4600238Y-8258333D01*
X4666905Y-8115476D01*
X4666905Y-8315476D01*
X4847857Y-8315476D02*
X4847857Y-8210714D01*
X4838333Y-8191667D01*
X4819286Y-8182143D01*
X4781190Y-8182143D01*
X4762143Y-8191667D01*
X4847857Y-8305952D02*
X4828810Y-8315476D01*
X4781190Y-8315476D01*
X4762143Y-8305952D01*
X4752619Y-8286905D01*
X4752619Y-8267857D01*
X4762143Y-8248809D01*
X4781190Y-8239286D01*
X4828810Y-8239286D01*
X4847857Y-8229762D01*
X4943095Y-8182143D02*
X4943095Y-8382143D01*
X4943095Y-8191667D02*
X4962143Y-8182143D01*
X5000238Y-8182143D01*
X5019286Y-8191667D01*
X5028810Y-8201190D01*
X5038333Y-8220238D01*
X5038333Y-8277381D01*
X5028810Y-8296428D01*
X5019286Y-8305952D01*
X5000238Y-8315476D01*
X4962143Y-8315476D01*
X4943095Y-8305952D01*
X5124048Y-8296428D02*
X5133571Y-8305952D01*
X5124048Y-8315476D01*
X5114524Y-8305952D01*
X5124048Y-8296428D01*
X5124048Y-8315476D01*
X5124048Y-8191667D02*
X5133571Y-8201190D01*
X5124048Y-8210714D01*
X5114524Y-8201190D01*
X5124048Y-8191667D01*
X5124048Y-8210714D01*
D12*
X3415000Y-8605000D02*
X3495000Y-8685000D01*
X3495000Y-8605000D02*
X3415000Y-8685000D01*
D11*
X3790714Y-8535476D02*
X3809762Y-8535476D01*
X3828809Y-8545000D01*
X3838333Y-8554524D01*
X3847857Y-8573571D01*
X3857381Y-8611667D01*
X3857381Y-8659286D01*
X3847857Y-8697381D01*
X3838333Y-8716429D01*
X3828809Y-8725952D01*
X3809762Y-8735476D01*
X3790714Y-8735476D01*
X3771667Y-8725952D01*
X3762143Y-8716429D01*
X3752619Y-8697381D01*
X3743095Y-8659286D01*
X3743095Y-8611667D01*
X3752619Y-8573571D01*
X3762143Y-8554524D01*
X3771667Y-8545000D01*
X3790714Y-8535476D01*
X3943095Y-8716429D02*
X3952619Y-8725952D01*
X3943095Y-8735476D01*
X3933571Y-8725952D01*
X3943095Y-8716429D01*
X3943095Y-8735476D01*
X4066905Y-8621190D02*
X4047857Y-8611667D01*
X4038333Y-8602143D01*
X4028809Y-8583095D01*
X4028809Y-8573571D01*
X4038333Y-8554524D01*
X4047857Y-8545000D01*
X4066905Y-8535476D01*
X4105000Y-8535476D01*
X4124048Y-8545000D01*
X4133571Y-8554524D01*
X4143095Y-8573571D01*
X4143095Y-8583095D01*
X4133571Y-8602143D01*
X4124048Y-8611667D01*
X4105000Y-8621190D01*
X4066905Y-8621190D01*
X4047857Y-8630714D01*
X4038333Y-8640238D01*
X4028809Y-8659286D01*
X4028809Y-8697381D01*
X4038333Y-8716429D01*
X4047857Y-8725952D01*
X4066905Y-8735476D01*
X4105000Y-8735476D01*
X4124048Y-8725952D01*
X4133571Y-8716429D01*
X4143095Y-8697381D01*
X4143095Y-8659286D01*
X4133571Y-8640238D01*
X4124048Y-8630714D01*
X4105000Y-8621190D01*
X4266905Y-8535476D02*
X4285952Y-8535476D01*
X4305000Y-8545000D01*
X4314524Y-8554524D01*
X4324048Y-8573571D01*
X4333571Y-8611667D01*
X4333571Y-8659286D01*
X4324048Y-8697381D01*
X4314524Y-8716429D01*
X4305000Y-8725952D01*
X4285952Y-8735476D01*
X4266905Y-8735476D01*
X4247857Y-8725952D01*
X4238333Y-8716429D01*
X4228810Y-8697381D01*
X4219286Y-8659286D01*
X4219286Y-8611667D01*
X4228810Y-8573571D01*
X4238333Y-8554524D01*
X4247857Y-8545000D01*
X4266905Y-8535476D01*
X4457381Y-8535476D02*
X4476429Y-8535476D01*
X4495476Y-8545000D01*
X4505000Y-8554524D01*
X4514524Y-8573571D01*
X4524048Y-8611667D01*
X4524048Y-8659286D01*
X4514524Y-8697381D01*
X4505000Y-8716429D01*
X4495476Y-8725952D01*
X4476429Y-8735476D01*
X4457381Y-8735476D01*
X4438333Y-8725952D01*
X4428810Y-8716429D01*
X4419286Y-8697381D01*
X4409762Y-8659286D01*
X4409762Y-8611667D01*
X4419286Y-8573571D01*
X4428810Y-8554524D01*
X4438333Y-8545000D01*
X4457381Y-8535476D01*
X4609762Y-8735476D02*
X4609762Y-8602143D01*
X4609762Y-8621190D02*
X4619286Y-8611667D01*
X4638333Y-8602143D01*
X4666905Y-8602143D01*
X4685952Y-8611667D01*
X4695476Y-8630714D01*
X4695476Y-8735476D01*
X4695476Y-8630714D02*
X4705000Y-8611667D01*
X4724048Y-8602143D01*
X4752619Y-8602143D01*
X4771667Y-8611667D01*
X4781190Y-8630714D01*
X4781190Y-8735476D01*
X4876429Y-8735476D02*
X4876429Y-8602143D01*
X4876429Y-8621190D02*
X4885952Y-8611667D01*
X4905000Y-8602143D01*
X4933571Y-8602143D01*
X4952619Y-8611667D01*
X4962143Y-8630714D01*
X4962143Y-8735476D01*
X4962143Y-8630714D02*
X4971667Y-8611667D01*
X4990714Y-8602143D01*
X5019286Y-8602143D01*
X5038333Y-8611667D01*
X5047857Y-8630714D01*
X5047857Y-8735476D01*
X5438333Y-8525952D02*
X5266905Y-8783095D01*
X5695476Y-8535476D02*
X5714524Y-8535476D01*
X5733571Y-8545000D01*
X5743095Y-8554524D01*
X5752619Y-8573571D01*
X5762143Y-8611667D01*
X5762143Y-8659286D01*
X5752619Y-8697381D01*
X5743095Y-8716429D01*
X5733571Y-8725952D01*
X5714524Y-8735476D01*
X5695476Y-8735476D01*
X5676428Y-8725952D01*
X5666905Y-8716429D01*
X5657381Y-8697381D01*
X5647857Y-8659286D01*
X5647857Y-8611667D01*
X5657381Y-8573571D01*
X5666905Y-8554524D01*
X5676428Y-8545000D01*
X5695476Y-8535476D01*
X5847857Y-8716429D02*
X5857381Y-8725952D01*
X5847857Y-8735476D01*
X5838333Y-8725952D01*
X5847857Y-8716429D01*
X5847857Y-8735476D01*
X5981190Y-8535476D02*
X6000238Y-8535476D01*
X6019286Y-8545000D01*
X6028809Y-8554524D01*
X6038333Y-8573571D01*
X6047857Y-8611667D01*
X6047857Y-8659286D01*
X6038333Y-8697381D01*
X6028809Y-8716429D01*
X6019286Y-8725952D01*
X6000238Y-8735476D01*
X5981190Y-8735476D01*
X5962143Y-8725952D01*
X5952619Y-8716429D01*
X5943095Y-8697381D01*
X5933571Y-8659286D01*
X5933571Y-8611667D01*
X5943095Y-8573571D01*
X5952619Y-8554524D01*
X5962143Y-8545000D01*
X5981190Y-8535476D01*
X6114524Y-8535476D02*
X6238333Y-8535476D01*
X6171667Y-8611667D01*
X6200238Y-8611667D01*
X6219286Y-8621190D01*
X6228809Y-8630714D01*
X6238333Y-8649762D01*
X6238333Y-8697381D01*
X6228809Y-8716429D01*
X6219286Y-8725952D01*
X6200238Y-8735476D01*
X6143095Y-8735476D01*
X6124048Y-8725952D01*
X6114524Y-8716429D01*
X6428809Y-8735476D02*
X6314524Y-8735476D01*
X6371667Y-8735476D02*
X6371667Y-8535476D01*
X6352619Y-8564048D01*
X6333571Y-8583095D01*
X6314524Y-8592619D01*
X6609762Y-8535476D02*
X6514524Y-8535476D01*
X6505000Y-8630714D01*
X6514524Y-8621190D01*
X6533571Y-8611667D01*
X6581190Y-8611667D01*
X6600238Y-8621190D01*
X6609762Y-8630714D01*
X6619286Y-8649762D01*
X6619286Y-8697381D01*
X6609762Y-8716429D01*
X6600238Y-8725952D01*
X6581190Y-8735476D01*
X6533571Y-8735476D01*
X6514524Y-8725952D01*
X6505000Y-8716429D01*
X6695476Y-8535476D02*
X6695476Y-8573571D01*
X6771667Y-8535476D02*
X6771667Y-8573571D01*
X7066905Y-8811667D02*
X7057381Y-8802143D01*
X7038333Y-8773571D01*
X7028809Y-8754524D01*
X7019286Y-8725952D01*
X7009762Y-8678333D01*
X7009762Y-8640238D01*
X7019286Y-8592619D01*
X7028809Y-8564048D01*
X7038333Y-8545000D01*
X7057381Y-8516429D01*
X7066905Y-8506905D01*
X7133571Y-8554524D02*
X7143095Y-8545000D01*
X7162143Y-8535476D01*
X7209762Y-8535476D01*
X7228809Y-8545000D01*
X7238333Y-8554524D01*
X7247857Y-8573571D01*
X7247857Y-8592619D01*
X7238333Y-8621190D01*
X7124048Y-8735476D01*
X7247857Y-8735476D01*
X7485952Y-8735476D02*
X7485952Y-8535476D01*
X7571667Y-8735476D02*
X7571667Y-8630714D01*
X7562143Y-8611667D01*
X7543095Y-8602143D01*
X7514524Y-8602143D01*
X7495476Y-8611667D01*
X7485952Y-8621190D01*
X7695476Y-8735476D02*
X7676428Y-8725952D01*
X7666905Y-8716429D01*
X7657381Y-8697381D01*
X7657381Y-8640238D01*
X7666905Y-8621190D01*
X7676428Y-8611667D01*
X7695476Y-8602143D01*
X7724048Y-8602143D01*
X7743095Y-8611667D01*
X7752619Y-8621190D01*
X7762143Y-8640238D01*
X7762143Y-8697381D01*
X7752619Y-8716429D01*
X7743095Y-8725952D01*
X7724048Y-8735476D01*
X7695476Y-8735476D01*
X7876428Y-8735476D02*
X7857381Y-8725952D01*
X7847857Y-8706905D01*
X7847857Y-8535476D01*
X8028809Y-8725952D02*
X8009762Y-8735476D01*
X7971667Y-8735476D01*
X7952619Y-8725952D01*
X7943095Y-8706905D01*
X7943095Y-8630714D01*
X7952619Y-8611667D01*
X7971667Y-8602143D01*
X8009762Y-8602143D01*
X8028809Y-8611667D01*
X8038333Y-8630714D01*
X8038333Y-8649762D01*
X7943095Y-8668810D01*
X8114524Y-8725952D02*
X8133571Y-8735476D01*
X8171667Y-8735476D01*
X8190714Y-8725952D01*
X8200238Y-8706905D01*
X8200238Y-8697381D01*
X8190714Y-8678333D01*
X8171667Y-8668810D01*
X8143095Y-8668810D01*
X8124048Y-8659286D01*
X8114524Y-8640238D01*
X8114524Y-8630714D01*
X8124048Y-8611667D01*
X8143095Y-8602143D01*
X8171667Y-8602143D01*
X8190714Y-8611667D01*
X8266905Y-8811667D02*
X8276428Y-8802143D01*
X8295476Y-8773571D01*
X8305000Y-8754524D01*
X8314524Y-8725952D01*
X8324048Y-8678333D01*
X8324048Y-8640238D01*
X8314524Y-8592619D01*
X8305000Y-8564048D01*
X8295476Y-8545000D01*
X8276428Y-8516429D01*
X8266905Y-8506905D01*
D13*
X3495000Y-8909000D02*
G75*
G03*
X3495000Y-8909000I-45000J0D01*
G01*
D11*
X3790714Y-8799476D02*
X3809762Y-8799476D01*
X3828809Y-8809000D01*
X3838333Y-8818524D01*
X3847857Y-8837571D01*
X3857381Y-8875667D01*
X3857381Y-8923286D01*
X3847857Y-8961381D01*
X3838333Y-8980429D01*
X3828809Y-8989952D01*
X3809762Y-8999476D01*
X3790714Y-8999476D01*
X3771667Y-8989952D01*
X3762143Y-8980429D01*
X3752619Y-8961381D01*
X3743095Y-8923286D01*
X3743095Y-8875667D01*
X3752619Y-8837571D01*
X3762143Y-8818524D01*
X3771667Y-8809000D01*
X3790714Y-8799476D01*
X3943095Y-8980429D02*
X3952619Y-8989952D01*
X3943095Y-8999476D01*
X3933571Y-8989952D01*
X3943095Y-8980429D01*
X3943095Y-8999476D01*
X4047857Y-8999476D02*
X4085952Y-8999476D01*
X4105000Y-8989952D01*
X4114524Y-8980429D01*
X4133571Y-8951857D01*
X4143095Y-8913762D01*
X4143095Y-8837571D01*
X4133571Y-8818524D01*
X4124048Y-8809000D01*
X4105000Y-8799476D01*
X4066905Y-8799476D01*
X4047857Y-8809000D01*
X4038333Y-8818524D01*
X4028809Y-8837571D01*
X4028809Y-8885190D01*
X4038333Y-8904238D01*
X4047857Y-8913762D01*
X4066905Y-8923286D01*
X4105000Y-8923286D01*
X4124048Y-8913762D01*
X4133571Y-8904238D01*
X4143095Y-8885190D01*
X4266905Y-8799476D02*
X4285952Y-8799476D01*
X4305000Y-8809000D01*
X4314524Y-8818524D01*
X4324048Y-8837571D01*
X4333571Y-8875667D01*
X4333571Y-8923286D01*
X4324048Y-8961381D01*
X4314524Y-8980429D01*
X4305000Y-8989952D01*
X4285952Y-8999476D01*
X4266905Y-8999476D01*
X4247857Y-8989952D01*
X4238333Y-8980429D01*
X4228810Y-8961381D01*
X4219286Y-8923286D01*
X4219286Y-8875667D01*
X4228810Y-8837571D01*
X4238333Y-8818524D01*
X4247857Y-8809000D01*
X4266905Y-8799476D01*
X4457381Y-8799476D02*
X4476429Y-8799476D01*
X4495476Y-8809000D01*
X4505000Y-8818524D01*
X4514524Y-8837571D01*
X4524048Y-8875667D01*
X4524048Y-8923286D01*
X4514524Y-8961381D01*
X4505000Y-8980429D01*
X4495476Y-8989952D01*
X4476429Y-8999476D01*
X4457381Y-8999476D01*
X4438333Y-8989952D01*
X4428810Y-8980429D01*
X4419286Y-8961381D01*
X4409762Y-8923286D01*
X4409762Y-8875667D01*
X4419286Y-8837571D01*
X4428810Y-8818524D01*
X4438333Y-8809000D01*
X4457381Y-8799476D01*
X4609762Y-8999476D02*
X4609762Y-8866143D01*
X4609762Y-8885190D02*
X4619286Y-8875667D01*
X4638333Y-8866143D01*
X4666905Y-8866143D01*
X4685952Y-8875667D01*
X4695476Y-8894714D01*
X4695476Y-8999476D01*
X4695476Y-8894714D02*
X4705000Y-8875667D01*
X4724048Y-8866143D01*
X4752619Y-8866143D01*
X4771667Y-8875667D01*
X4781190Y-8894714D01*
X4781190Y-8999476D01*
X4876429Y-8999476D02*
X4876429Y-8866143D01*
X4876429Y-8885190D02*
X4885952Y-8875667D01*
X4905000Y-8866143D01*
X4933571Y-8866143D01*
X4952619Y-8875667D01*
X4962143Y-8894714D01*
X4962143Y-8999476D01*
X4962143Y-8894714D02*
X4971667Y-8875667D01*
X4990714Y-8866143D01*
X5019286Y-8866143D01*
X5038333Y-8875667D01*
X5047857Y-8894714D01*
X5047857Y-8999476D01*
X5438333Y-8789952D02*
X5266905Y-9047095D01*
X5695476Y-8799476D02*
X5714524Y-8799476D01*
X5733571Y-8809000D01*
X5743095Y-8818524D01*
X5752619Y-8837571D01*
X5762143Y-8875667D01*
X5762143Y-8923286D01*
X5752619Y-8961381D01*
X5743095Y-8980429D01*
X5733571Y-8989952D01*
X5714524Y-8999476D01*
X5695476Y-8999476D01*
X5676428Y-8989952D01*
X5666905Y-8980429D01*
X5657381Y-8961381D01*
X5647857Y-8923286D01*
X5647857Y-8875667D01*
X5657381Y-8837571D01*
X5666905Y-8818524D01*
X5676428Y-8809000D01*
X5695476Y-8799476D01*
X5847857Y-8980429D02*
X5857381Y-8989952D01*
X5847857Y-8999476D01*
X5838333Y-8989952D01*
X5847857Y-8980429D01*
X5847857Y-8999476D01*
X5981190Y-8799476D02*
X6000238Y-8799476D01*
X6019286Y-8809000D01*
X6028809Y-8818524D01*
X6038333Y-8837571D01*
X6047857Y-8875667D01*
X6047857Y-8923286D01*
X6038333Y-8961381D01*
X6028809Y-8980429D01*
X6019286Y-8989952D01*
X6000238Y-8999476D01*
X5981190Y-8999476D01*
X5962143Y-8989952D01*
X5952619Y-8980429D01*
X5943095Y-8961381D01*
X5933571Y-8923286D01*
X5933571Y-8875667D01*
X5943095Y-8837571D01*
X5952619Y-8818524D01*
X5962143Y-8809000D01*
X5981190Y-8799476D01*
X6114524Y-8799476D02*
X6238333Y-8799476D01*
X6171667Y-8875667D01*
X6200238Y-8875667D01*
X6219286Y-8885190D01*
X6228809Y-8894714D01*
X6238333Y-8913762D01*
X6238333Y-8961381D01*
X6228809Y-8980429D01*
X6219286Y-8989952D01*
X6200238Y-8999476D01*
X6143095Y-8999476D01*
X6124048Y-8989952D01*
X6114524Y-8980429D01*
X6419286Y-8799476D02*
X6324048Y-8799476D01*
X6314524Y-8894714D01*
X6324048Y-8885190D01*
X6343095Y-8875667D01*
X6390714Y-8875667D01*
X6409762Y-8885190D01*
X6419286Y-8894714D01*
X6428809Y-8913762D01*
X6428809Y-8961381D01*
X6419286Y-8980429D01*
X6409762Y-8989952D01*
X6390714Y-8999476D01*
X6343095Y-8999476D01*
X6324048Y-8989952D01*
X6314524Y-8980429D01*
X6600238Y-8866143D02*
X6600238Y-8999476D01*
X6552619Y-8789952D02*
X6505000Y-8932810D01*
X6628809Y-8932810D01*
X6695476Y-8799476D02*
X6695476Y-8837571D01*
X6771667Y-8799476D02*
X6771667Y-8837571D01*
X7066905Y-9075667D02*
X7057381Y-9066143D01*
X7038333Y-9037571D01*
X7028809Y-9018524D01*
X7019286Y-8989952D01*
X7009762Y-8942333D01*
X7009762Y-8904238D01*
X7019286Y-8856619D01*
X7028809Y-8828048D01*
X7038333Y-8809000D01*
X7057381Y-8780429D01*
X7066905Y-8770905D01*
X7171667Y-8885190D02*
X7152619Y-8875667D01*
X7143095Y-8866143D01*
X7133571Y-8847095D01*
X7133571Y-8837571D01*
X7143095Y-8818524D01*
X7152619Y-8809000D01*
X7171667Y-8799476D01*
X7209762Y-8799476D01*
X7228809Y-8809000D01*
X7238333Y-8818524D01*
X7247857Y-8837571D01*
X7247857Y-8847095D01*
X7238333Y-8866143D01*
X7228809Y-8875667D01*
X7209762Y-8885190D01*
X7171667Y-8885190D01*
X7152619Y-8894714D01*
X7143095Y-8904238D01*
X7133571Y-8923286D01*
X7133571Y-8961381D01*
X7143095Y-8980429D01*
X7152619Y-8989952D01*
X7171667Y-8999476D01*
X7209762Y-8999476D01*
X7228809Y-8989952D01*
X7238333Y-8980429D01*
X7247857Y-8961381D01*
X7247857Y-8923286D01*
X7238333Y-8904238D01*
X7228809Y-8894714D01*
X7209762Y-8885190D01*
X7485952Y-8999476D02*
X7485952Y-8799476D01*
X7571667Y-8999476D02*
X7571667Y-8894714D01*
X7562143Y-8875667D01*
X7543095Y-8866143D01*
X7514524Y-8866143D01*
X7495476Y-8875667D01*
X7485952Y-8885190D01*
X7695476Y-8999476D02*
X7676428Y-8989952D01*
X7666905Y-8980429D01*
X7657381Y-8961381D01*
X7657381Y-8904238D01*
X7666905Y-8885190D01*
X7676428Y-8875667D01*
X7695476Y-8866143D01*
X7724048Y-8866143D01*
X7743095Y-8875667D01*
X7752619Y-8885190D01*
X7762143Y-8904238D01*
X7762143Y-8961381D01*
X7752619Y-8980429D01*
X7743095Y-8989952D01*
X7724048Y-8999476D01*
X7695476Y-8999476D01*
X7876428Y-8999476D02*
X7857381Y-8989952D01*
X7847857Y-8970905D01*
X7847857Y-8799476D01*
X8028809Y-8989952D02*
X8009762Y-8999476D01*
X7971667Y-8999476D01*
X7952619Y-8989952D01*
X7943095Y-8970905D01*
X7943095Y-8894714D01*
X7952619Y-8875667D01*
X7971667Y-8866143D01*
X8009762Y-8866143D01*
X8028809Y-8875667D01*
X8038333Y-8894714D01*
X8038333Y-8913762D01*
X7943095Y-8932810D01*
X8114524Y-8989952D02*
X8133571Y-8999476D01*
X8171667Y-8999476D01*
X8190714Y-8989952D01*
X8200238Y-8970905D01*
X8200238Y-8961381D01*
X8190714Y-8942333D01*
X8171667Y-8932810D01*
X8143095Y-8932810D01*
X8124048Y-8923286D01*
X8114524Y-8904238D01*
X8114524Y-8894714D01*
X8124048Y-8875667D01*
X8143095Y-8866143D01*
X8171667Y-8866143D01*
X8190714Y-8875667D01*
X8266905Y-9075667D02*
X8276428Y-9066143D01*
X8295476Y-9037571D01*
X8305000Y-9018524D01*
X8314524Y-8989952D01*
X8324048Y-8942333D01*
X8324048Y-8904238D01*
X8314524Y-8856619D01*
X8305000Y-8828048D01*
X8295476Y-8809000D01*
X8276428Y-8780429D01*
X8266905Y-8770905D01*
D14*
X3444200Y-9122200D02*
X3444200Y-9223800D01*
X3393400Y-9173000D02*
X3495000Y-9173000D01*
D11*
X3857381Y-9263476D02*
X3743095Y-9263476D01*
X3800238Y-9263476D02*
X3800238Y-9063476D01*
X3781190Y-9092048D01*
X3762143Y-9111095D01*
X3743095Y-9120619D01*
X3943095Y-9244429D02*
X3952619Y-9253952D01*
X3943095Y-9263476D01*
X3933571Y-9253952D01*
X3943095Y-9244429D01*
X3943095Y-9263476D01*
X4076428Y-9063476D02*
X4095476Y-9063476D01*
X4114524Y-9073000D01*
X4124048Y-9082524D01*
X4133571Y-9101571D01*
X4143095Y-9139667D01*
X4143095Y-9187286D01*
X4133571Y-9225381D01*
X4124048Y-9244429D01*
X4114524Y-9253952D01*
X4095476Y-9263476D01*
X4076428Y-9263476D01*
X4057381Y-9253952D01*
X4047857Y-9244429D01*
X4038333Y-9225381D01*
X4028809Y-9187286D01*
X4028809Y-9139667D01*
X4038333Y-9101571D01*
X4047857Y-9082524D01*
X4057381Y-9073000D01*
X4076428Y-9063476D01*
X4333571Y-9263476D02*
X4219286Y-9263476D01*
X4276429Y-9263476D02*
X4276429Y-9063476D01*
X4257381Y-9092048D01*
X4238333Y-9111095D01*
X4219286Y-9120619D01*
X4505000Y-9063476D02*
X4466905Y-9063476D01*
X4447857Y-9073000D01*
X4438333Y-9082524D01*
X4419286Y-9111095D01*
X4409762Y-9149190D01*
X4409762Y-9225381D01*
X4419286Y-9244429D01*
X4428810Y-9253952D01*
X4447857Y-9263476D01*
X4485952Y-9263476D01*
X4505000Y-9253952D01*
X4514524Y-9244429D01*
X4524048Y-9225381D01*
X4524048Y-9177762D01*
X4514524Y-9158714D01*
X4505000Y-9149190D01*
X4485952Y-9139667D01*
X4447857Y-9139667D01*
X4428810Y-9149190D01*
X4419286Y-9158714D01*
X4409762Y-9177762D01*
X4609762Y-9263476D02*
X4609762Y-9130143D01*
X4609762Y-9149190D02*
X4619286Y-9139667D01*
X4638333Y-9130143D01*
X4666905Y-9130143D01*
X4685952Y-9139667D01*
X4695476Y-9158714D01*
X4695476Y-9263476D01*
X4695476Y-9158714D02*
X4705000Y-9139667D01*
X4724048Y-9130143D01*
X4752619Y-9130143D01*
X4771667Y-9139667D01*
X4781190Y-9158714D01*
X4781190Y-9263476D01*
X4876429Y-9263476D02*
X4876429Y-9130143D01*
X4876429Y-9149190D02*
X4885952Y-9139667D01*
X4905000Y-9130143D01*
X4933571Y-9130143D01*
X4952619Y-9139667D01*
X4962143Y-9158714D01*
X4962143Y-9263476D01*
X4962143Y-9158714D02*
X4971667Y-9139667D01*
X4990714Y-9130143D01*
X5019286Y-9130143D01*
X5038333Y-9139667D01*
X5047857Y-9158714D01*
X5047857Y-9263476D01*
X5438333Y-9053952D02*
X5266905Y-9311095D01*
X5695476Y-9063476D02*
X5714524Y-9063476D01*
X5733571Y-9073000D01*
X5743095Y-9082524D01*
X5752619Y-9101571D01*
X5762143Y-9139667D01*
X5762143Y-9187286D01*
X5752619Y-9225381D01*
X5743095Y-9244429D01*
X5733571Y-9253952D01*
X5714524Y-9263476D01*
X5695476Y-9263476D01*
X5676428Y-9253952D01*
X5666905Y-9244429D01*
X5657381Y-9225381D01*
X5647857Y-9187286D01*
X5647857Y-9139667D01*
X5657381Y-9101571D01*
X5666905Y-9082524D01*
X5676428Y-9073000D01*
X5695476Y-9063476D01*
X5847857Y-9244429D02*
X5857381Y-9253952D01*
X5847857Y-9263476D01*
X5838333Y-9253952D01*
X5847857Y-9244429D01*
X5847857Y-9263476D01*
X5981190Y-9063476D02*
X6000238Y-9063476D01*
X6019286Y-9073000D01*
X6028809Y-9082524D01*
X6038333Y-9101571D01*
X6047857Y-9139667D01*
X6047857Y-9187286D01*
X6038333Y-9225381D01*
X6028809Y-9244429D01*
X6019286Y-9253952D01*
X6000238Y-9263476D01*
X5981190Y-9263476D01*
X5962143Y-9253952D01*
X5952619Y-9244429D01*
X5943095Y-9225381D01*
X5933571Y-9187286D01*
X5933571Y-9139667D01*
X5943095Y-9101571D01*
X5952619Y-9082524D01*
X5962143Y-9073000D01*
X5981190Y-9063476D01*
X6219286Y-9130143D02*
X6219286Y-9263476D01*
X6171667Y-9053952D02*
X6124048Y-9196810D01*
X6247857Y-9196810D01*
X6362143Y-9063476D02*
X6381190Y-9063476D01*
X6400238Y-9073000D01*
X6409762Y-9082524D01*
X6419286Y-9101571D01*
X6428809Y-9139667D01*
X6428809Y-9187286D01*
X6419286Y-9225381D01*
X6409762Y-9244429D01*
X6400238Y-9253952D01*
X6381190Y-9263476D01*
X6362143Y-9263476D01*
X6343095Y-9253952D01*
X6333571Y-9244429D01*
X6324048Y-9225381D01*
X6314524Y-9187286D01*
X6314524Y-9139667D01*
X6324048Y-9101571D01*
X6333571Y-9082524D01*
X6343095Y-9073000D01*
X6362143Y-9063476D01*
X6552619Y-9063476D02*
X6571667Y-9063476D01*
X6590714Y-9073000D01*
X6600238Y-9082524D01*
X6609762Y-9101571D01*
X6619286Y-9139667D01*
X6619286Y-9187286D01*
X6609762Y-9225381D01*
X6600238Y-9244429D01*
X6590714Y-9253952D01*
X6571667Y-9263476D01*
X6552619Y-9263476D01*
X6533571Y-9253952D01*
X6524048Y-9244429D01*
X6514524Y-9225381D01*
X6505000Y-9187286D01*
X6505000Y-9139667D01*
X6514524Y-9101571D01*
X6524048Y-9082524D01*
X6533571Y-9073000D01*
X6552619Y-9063476D01*
X6695476Y-9063476D02*
X6695476Y-9101571D01*
X6771667Y-9063476D02*
X6771667Y-9101571D01*
X7066905Y-9339667D02*
X7057381Y-9330143D01*
X7038333Y-9301571D01*
X7028809Y-9282524D01*
X7019286Y-9253952D01*
X7009762Y-9206333D01*
X7009762Y-9168238D01*
X7019286Y-9120619D01*
X7028809Y-9092048D01*
X7038333Y-9073000D01*
X7057381Y-9044429D01*
X7066905Y-9034905D01*
X7124048Y-9063476D02*
X7247857Y-9063476D01*
X7181190Y-9139667D01*
X7209762Y-9139667D01*
X7228809Y-9149190D01*
X7238333Y-9158714D01*
X7247857Y-9177762D01*
X7247857Y-9225381D01*
X7238333Y-9244429D01*
X7228809Y-9253952D01*
X7209762Y-9263476D01*
X7152619Y-9263476D01*
X7133571Y-9253952D01*
X7124048Y-9244429D01*
X7371667Y-9063476D02*
X7390714Y-9063476D01*
X7409762Y-9073000D01*
X7419286Y-9082524D01*
X7428809Y-9101571D01*
X7438333Y-9139667D01*
X7438333Y-9187286D01*
X7428809Y-9225381D01*
X7419286Y-9244429D01*
X7409762Y-9253952D01*
X7390714Y-9263476D01*
X7371667Y-9263476D01*
X7352619Y-9253952D01*
X7343095Y-9244429D01*
X7333571Y-9225381D01*
X7324048Y-9187286D01*
X7324048Y-9139667D01*
X7333571Y-9101571D01*
X7343095Y-9082524D01*
X7352619Y-9073000D01*
X7371667Y-9063476D01*
X7676428Y-9263476D02*
X7676428Y-9063476D01*
X7762143Y-9263476D02*
X7762143Y-9158714D01*
X7752619Y-9139667D01*
X7733571Y-9130143D01*
X7705000Y-9130143D01*
X7685952Y-9139667D01*
X7676428Y-9149190D01*
X7885952Y-9263476D02*
X7866905Y-9253952D01*
X7857381Y-9244429D01*
X7847857Y-9225381D01*
X7847857Y-9168238D01*
X7857381Y-9149190D01*
X7866905Y-9139667D01*
X7885952Y-9130143D01*
X7914524Y-9130143D01*
X7933571Y-9139667D01*
X7943095Y-9149190D01*
X7952619Y-9168238D01*
X7952619Y-9225381D01*
X7943095Y-9244429D01*
X7933571Y-9253952D01*
X7914524Y-9263476D01*
X7885952Y-9263476D01*
X8066905Y-9263476D02*
X8047857Y-9253952D01*
X8038333Y-9234905D01*
X8038333Y-9063476D01*
X8219286Y-9253952D02*
X8200238Y-9263476D01*
X8162143Y-9263476D01*
X8143095Y-9253952D01*
X8133571Y-9234905D01*
X8133571Y-9158714D01*
X8143095Y-9139667D01*
X8162143Y-9130143D01*
X8200238Y-9130143D01*
X8219286Y-9139667D01*
X8228809Y-9158714D01*
X8228809Y-9177762D01*
X8133571Y-9196810D01*
X8305000Y-9253952D02*
X8324048Y-9263476D01*
X8362143Y-9263476D01*
X8381190Y-9253952D01*
X8390714Y-9234905D01*
X8390714Y-9225381D01*
X8381190Y-9206333D01*
X8362143Y-9196810D01*
X8333571Y-9196810D01*
X8314524Y-9187286D01*
X8305000Y-9168238D01*
X8305000Y-9158714D01*
X8314524Y-9139667D01*
X8333571Y-9130143D01*
X8362143Y-9130143D01*
X8381190Y-9139667D01*
X8457381Y-9339667D02*
X8466905Y-9330143D01*
X8485952Y-9301571D01*
X8495476Y-9282524D01*
X8505000Y-9253952D01*
X8514524Y-9206333D01*
X8514524Y-9168238D01*
X8505000Y-9120619D01*
X8495476Y-9092048D01*
X8485952Y-9073000D01*
X8466905Y-9044429D01*
X8457381Y-9034905D01*
D15*
X3478891Y-9475891D02*
X3478891Y-9398109D01*
X3401109Y-9398109D01*
X3401109Y-9475891D01*
X3478891Y-9475891D01*
D11*
X3857381Y-9527476D02*
X3743095Y-9527476D01*
X3800238Y-9527476D02*
X3800238Y-9327476D01*
X3781190Y-9356048D01*
X3762143Y-9375095D01*
X3743095Y-9384619D01*
X3943095Y-9508429D02*
X3952619Y-9517952D01*
X3943095Y-9527476D01*
X3933571Y-9517952D01*
X3943095Y-9508429D01*
X3943095Y-9527476D01*
X4143095Y-9527476D02*
X4028809Y-9527476D01*
X4085952Y-9527476D02*
X4085952Y-9327476D01*
X4066905Y-9356048D01*
X4047857Y-9375095D01*
X4028809Y-9384619D01*
X4266905Y-9327476D02*
X4285952Y-9327476D01*
X4305000Y-9337000D01*
X4314524Y-9346524D01*
X4324048Y-9365571D01*
X4333571Y-9403667D01*
X4333571Y-9451286D01*
X4324048Y-9489381D01*
X4314524Y-9508429D01*
X4305000Y-9517952D01*
X4285952Y-9527476D01*
X4266905Y-9527476D01*
X4247857Y-9517952D01*
X4238333Y-9508429D01*
X4228810Y-9489381D01*
X4219286Y-9451286D01*
X4219286Y-9403667D01*
X4228810Y-9365571D01*
X4238333Y-9346524D01*
X4247857Y-9337000D01*
X4266905Y-9327476D01*
X4457381Y-9327476D02*
X4476429Y-9327476D01*
X4495476Y-9337000D01*
X4505000Y-9346524D01*
X4514524Y-9365571D01*
X4524048Y-9403667D01*
X4524048Y-9451286D01*
X4514524Y-9489381D01*
X4505000Y-9508429D01*
X4495476Y-9517952D01*
X4476429Y-9527476D01*
X4457381Y-9527476D01*
X4438333Y-9517952D01*
X4428810Y-9508429D01*
X4419286Y-9489381D01*
X4409762Y-9451286D01*
X4409762Y-9403667D01*
X4419286Y-9365571D01*
X4428810Y-9346524D01*
X4438333Y-9337000D01*
X4457381Y-9327476D01*
X4609762Y-9527476D02*
X4609762Y-9394143D01*
X4609762Y-9413190D02*
X4619286Y-9403667D01*
X4638333Y-9394143D01*
X4666905Y-9394143D01*
X4685952Y-9403667D01*
X4695476Y-9422714D01*
X4695476Y-9527476D01*
X4695476Y-9422714D02*
X4705000Y-9403667D01*
X4724048Y-9394143D01*
X4752619Y-9394143D01*
X4771667Y-9403667D01*
X4781190Y-9422714D01*
X4781190Y-9527476D01*
X4876429Y-9527476D02*
X4876429Y-9394143D01*
X4876429Y-9413190D02*
X4885952Y-9403667D01*
X4905000Y-9394143D01*
X4933571Y-9394143D01*
X4952619Y-9403667D01*
X4962143Y-9422714D01*
X4962143Y-9527476D01*
X4962143Y-9422714D02*
X4971667Y-9403667D01*
X4990714Y-9394143D01*
X5019286Y-9394143D01*
X5038333Y-9403667D01*
X5047857Y-9422714D01*
X5047857Y-9527476D01*
X5438333Y-9317952D02*
X5266905Y-9575095D01*
X5695476Y-9327476D02*
X5714524Y-9327476D01*
X5733571Y-9337000D01*
X5743095Y-9346524D01*
X5752619Y-9365571D01*
X5762143Y-9403667D01*
X5762143Y-9451286D01*
X5752619Y-9489381D01*
X5743095Y-9508429D01*
X5733571Y-9517952D01*
X5714524Y-9527476D01*
X5695476Y-9527476D01*
X5676428Y-9517952D01*
X5666905Y-9508429D01*
X5657381Y-9489381D01*
X5647857Y-9451286D01*
X5647857Y-9403667D01*
X5657381Y-9365571D01*
X5666905Y-9346524D01*
X5676428Y-9337000D01*
X5695476Y-9327476D01*
X5847857Y-9508429D02*
X5857381Y-9517952D01*
X5847857Y-9527476D01*
X5838333Y-9517952D01*
X5847857Y-9508429D01*
X5847857Y-9527476D01*
X5981190Y-9327476D02*
X6000238Y-9327476D01*
X6019286Y-9337000D01*
X6028809Y-9346524D01*
X6038333Y-9365571D01*
X6047857Y-9403667D01*
X6047857Y-9451286D01*
X6038333Y-9489381D01*
X6028809Y-9508429D01*
X6019286Y-9517952D01*
X6000238Y-9527476D01*
X5981190Y-9527476D01*
X5962143Y-9517952D01*
X5952619Y-9508429D01*
X5943095Y-9489381D01*
X5933571Y-9451286D01*
X5933571Y-9403667D01*
X5943095Y-9365571D01*
X5952619Y-9346524D01*
X5962143Y-9337000D01*
X5981190Y-9327476D01*
X6219286Y-9394143D02*
X6219286Y-9527476D01*
X6171667Y-9317952D02*
X6124048Y-9460810D01*
X6247857Y-9460810D01*
X6305000Y-9327476D02*
X6428809Y-9327476D01*
X6362143Y-9403667D01*
X6390714Y-9403667D01*
X6409762Y-9413190D01*
X6419286Y-9422714D01*
X6428809Y-9441762D01*
X6428809Y-9489381D01*
X6419286Y-9508429D01*
X6409762Y-9517952D01*
X6390714Y-9527476D01*
X6333571Y-9527476D01*
X6314524Y-9517952D01*
X6305000Y-9508429D01*
X6495476Y-9327476D02*
X6619286Y-9327476D01*
X6552619Y-9403667D01*
X6581190Y-9403667D01*
X6600238Y-9413190D01*
X6609762Y-9422714D01*
X6619286Y-9441762D01*
X6619286Y-9489381D01*
X6609762Y-9508429D01*
X6600238Y-9517952D01*
X6581190Y-9527476D01*
X6524048Y-9527476D01*
X6505000Y-9517952D01*
X6495476Y-9508429D01*
X6695476Y-9327476D02*
X6695476Y-9365571D01*
X6771667Y-9327476D02*
X6771667Y-9365571D01*
X7066905Y-9603667D02*
X7057381Y-9594143D01*
X7038333Y-9565571D01*
X7028809Y-9546524D01*
X7019286Y-9517952D01*
X7009762Y-9470333D01*
X7009762Y-9432238D01*
X7019286Y-9384619D01*
X7028809Y-9356048D01*
X7038333Y-9337000D01*
X7057381Y-9308429D01*
X7066905Y-9298905D01*
X7124048Y-9327476D02*
X7247857Y-9327476D01*
X7181190Y-9403667D01*
X7209762Y-9403667D01*
X7228809Y-9413190D01*
X7238333Y-9422714D01*
X7247857Y-9441762D01*
X7247857Y-9489381D01*
X7238333Y-9508429D01*
X7228809Y-9517952D01*
X7209762Y-9527476D01*
X7152619Y-9527476D01*
X7133571Y-9517952D01*
X7124048Y-9508429D01*
X7419286Y-9327476D02*
X7381190Y-9327476D01*
X7362143Y-9337000D01*
X7352619Y-9346524D01*
X7333571Y-9375095D01*
X7324048Y-9413190D01*
X7324048Y-9489381D01*
X7333571Y-9508429D01*
X7343095Y-9517952D01*
X7362143Y-9527476D01*
X7400238Y-9527476D01*
X7419286Y-9517952D01*
X7428809Y-9508429D01*
X7438333Y-9489381D01*
X7438333Y-9441762D01*
X7428809Y-9422714D01*
X7419286Y-9413190D01*
X7400238Y-9403667D01*
X7362143Y-9403667D01*
X7343095Y-9413190D01*
X7333571Y-9422714D01*
X7324048Y-9441762D01*
X7676428Y-9527476D02*
X7676428Y-9327476D01*
X7762143Y-9527476D02*
X7762143Y-9422714D01*
X7752619Y-9403667D01*
X7733571Y-9394143D01*
X7705000Y-9394143D01*
X7685952Y-9403667D01*
X7676428Y-9413190D01*
X7885952Y-9527476D02*
X7866905Y-9517952D01*
X7857381Y-9508429D01*
X7847857Y-9489381D01*
X7847857Y-9432238D01*
X7857381Y-9413190D01*
X7866905Y-9403667D01*
X7885952Y-9394143D01*
X7914524Y-9394143D01*
X7933571Y-9403667D01*
X7943095Y-9413190D01*
X7952619Y-9432238D01*
X7952619Y-9489381D01*
X7943095Y-9508429D01*
X7933571Y-9517952D01*
X7914524Y-9527476D01*
X7885952Y-9527476D01*
X8066905Y-9527476D02*
X8047857Y-9517952D01*
X8038333Y-9498905D01*
X8038333Y-9327476D01*
X8219286Y-9517952D02*
X8200238Y-9527476D01*
X8162143Y-9527476D01*
X8143095Y-9517952D01*
X8133571Y-9498905D01*
X8133571Y-9422714D01*
X8143095Y-9403667D01*
X8162143Y-9394143D01*
X8200238Y-9394143D01*
X8219286Y-9403667D01*
X8228809Y-9422714D01*
X8228809Y-9441762D01*
X8133571Y-9460810D01*
X8305000Y-9517952D02*
X8324048Y-9527476D01*
X8362143Y-9527476D01*
X8381190Y-9517952D01*
X8390714Y-9498905D01*
X8390714Y-9489381D01*
X8381190Y-9470333D01*
X8362143Y-9460810D01*
X8333571Y-9460810D01*
X8314524Y-9451286D01*
X8305000Y-9432238D01*
X8305000Y-9422714D01*
X8314524Y-9403667D01*
X8333571Y-9394143D01*
X8362143Y-9394143D01*
X8381190Y-9403667D01*
X8457381Y-9603667D02*
X8466905Y-9594143D01*
X8485952Y-9565571D01*
X8495476Y-9546524D01*
X8505000Y-9517952D01*
X8514524Y-9470333D01*
X8514524Y-9432238D01*
X8505000Y-9384619D01*
X8495476Y-9356048D01*
X8485952Y-9337000D01*
X8466905Y-9308429D01*
X8457381Y-9298905D01*
M02*
