%TF.GenerationSoftware,KiCad,Pcbnew,(6.0.7)*%
%TF.CreationDate,2022-10-09T17:55:32-05:00*%
%TF.ProjectId,FieldBangerPCB,4669656c-6442-4616-9e67-65725043422e,rev?*%
%TF.SameCoordinates,Original*%
%TF.FileFunction,Drillmap*%
%TF.FilePolarity,Positive*%
%FSLAX45Y45*%
G04 Gerber Fmt 4.5, Leading zero omitted, Abs format (unit mm)*
G04 Created by KiCad (PCBNEW (6.0.7)) date 2022-10-09 17:55:32*
%MOMM*%
%LPD*%
G01*
G04 APERTURE LIST*
%ADD10C,0.100000*%
%ADD11C,0.200000*%
%ADD12C,0.185000*%
%ADD13C,0.345000*%
G04 APERTURE END LIST*
D10*
X4000000Y-6000000D02*
X6500000Y-6000000D01*
X3500000Y-7500000D02*
X3500000Y-6500000D01*
X8000000Y-4500000D02*
X8000000Y-3500000D01*
X21500000Y-8000000D02*
G75*
G03*
X22000000Y-7500000I0J500000D01*
G01*
X3500000Y-7500000D02*
G75*
G03*
X4000000Y-8000000I500000J0D01*
G01*
X17500000Y-3500000D02*
G75*
G03*
X17000000Y-3000000I-500000J0D01*
G01*
X17500000Y-3500000D02*
X17500000Y-4500000D01*
X8500000Y-3000000D02*
X17000000Y-3000000D01*
X17500000Y-4500000D02*
X19000000Y-6000000D01*
X8000000Y-4500000D02*
X6500000Y-6000000D01*
X22000000Y-6500000D02*
G75*
G03*
X21500000Y-6000000I-500000J0D01*
G01*
X8500000Y-3000000D02*
G75*
G03*
X8000000Y-3500000I0J-500000D01*
G01*
X21500000Y-8000000D02*
X4000000Y-8000000D01*
X19000000Y-6000000D02*
X21500000Y-6000000D01*
X22000000Y-6500000D02*
X22000000Y-7500000D01*
X4000000Y-6000000D02*
G75*
G03*
X3500000Y-6500000I0J-500000D01*
G01*
D11*
D12*
X11758500Y-3732500D02*
X11943500Y-3917500D01*
X11943500Y-3732500D02*
X11758500Y-3917500D01*
X11758500Y-5256500D02*
X11943500Y-5441500D01*
X11943500Y-5256500D02*
X11758500Y-5441500D01*
X15822500Y-3732500D02*
X16007500Y-3917500D01*
X16007500Y-3732500D02*
X15822500Y-3917500D01*
X15822500Y-5256500D02*
X16007500Y-5441500D01*
X16007500Y-5256500D02*
X15822500Y-5441500D01*
D13*
X10072500Y-4000000D02*
G75*
G03*
X10072500Y-4000000I-172500J0D01*
G01*
X10072500Y-5143000D02*
G75*
G03*
X10072500Y-5143000I-172500J0D01*
G01*
D11*
X3752619Y-8315476D02*
X3752619Y-8115476D01*
X3800238Y-8115476D01*
X3828809Y-8125000D01*
X3847857Y-8144048D01*
X3857381Y-8163095D01*
X3866905Y-8201190D01*
X3866905Y-8229762D01*
X3857381Y-8267857D01*
X3847857Y-8286905D01*
X3828809Y-8305952D01*
X3800238Y-8315476D01*
X3752619Y-8315476D01*
X3952619Y-8315476D02*
X3952619Y-8182143D01*
X3952619Y-8220238D02*
X3962143Y-8201190D01*
X3971667Y-8191667D01*
X3990714Y-8182143D01*
X4009762Y-8182143D01*
X4076428Y-8315476D02*
X4076428Y-8182143D01*
X4076428Y-8115476D02*
X4066905Y-8125000D01*
X4076428Y-8134524D01*
X4085952Y-8125000D01*
X4076428Y-8115476D01*
X4076428Y-8134524D01*
X4200238Y-8315476D02*
X4181190Y-8305952D01*
X4171667Y-8286905D01*
X4171667Y-8115476D01*
X4305000Y-8315476D02*
X4285952Y-8305952D01*
X4276429Y-8286905D01*
X4276429Y-8115476D01*
X4533571Y-8315476D02*
X4533571Y-8115476D01*
X4600238Y-8258333D01*
X4666905Y-8115476D01*
X4666905Y-8315476D01*
X4847857Y-8315476D02*
X4847857Y-8210714D01*
X4838333Y-8191667D01*
X4819286Y-8182143D01*
X4781190Y-8182143D01*
X4762143Y-8191667D01*
X4847857Y-8305952D02*
X4828810Y-8315476D01*
X4781190Y-8315476D01*
X4762143Y-8305952D01*
X4752619Y-8286905D01*
X4752619Y-8267857D01*
X4762143Y-8248809D01*
X4781190Y-8239286D01*
X4828810Y-8239286D01*
X4847857Y-8229762D01*
X4943095Y-8182143D02*
X4943095Y-8382143D01*
X4943095Y-8191667D02*
X4962143Y-8182143D01*
X5000238Y-8182143D01*
X5019286Y-8191667D01*
X5028810Y-8201190D01*
X5038333Y-8220238D01*
X5038333Y-8277381D01*
X5028810Y-8296428D01*
X5019286Y-8305952D01*
X5000238Y-8315476D01*
X4962143Y-8315476D01*
X4943095Y-8305952D01*
X5124048Y-8296428D02*
X5133571Y-8305952D01*
X5124048Y-8315476D01*
X5114524Y-8305952D01*
X5124048Y-8296428D01*
X5124048Y-8315476D01*
X5124048Y-8191667D02*
X5133571Y-8201190D01*
X5124048Y-8210714D01*
X5114524Y-8201190D01*
X5124048Y-8191667D01*
X5124048Y-8210714D01*
D12*
X3310000Y-8552500D02*
X3495000Y-8737500D01*
X3495000Y-8552500D02*
X3310000Y-8737500D01*
D11*
X3857381Y-8735476D02*
X3743095Y-8735476D01*
X3800238Y-8735476D02*
X3800238Y-8535476D01*
X3781190Y-8564048D01*
X3762143Y-8583095D01*
X3743095Y-8592619D01*
X3943095Y-8716429D02*
X3952619Y-8725952D01*
X3943095Y-8735476D01*
X3933571Y-8725952D01*
X3943095Y-8716429D01*
X3943095Y-8735476D01*
X4066905Y-8621190D02*
X4047857Y-8611667D01*
X4038333Y-8602143D01*
X4028809Y-8583095D01*
X4028809Y-8573571D01*
X4038333Y-8554524D01*
X4047857Y-8545000D01*
X4066905Y-8535476D01*
X4105000Y-8535476D01*
X4124048Y-8545000D01*
X4133571Y-8554524D01*
X4143095Y-8573571D01*
X4143095Y-8583095D01*
X4133571Y-8602143D01*
X4124048Y-8611667D01*
X4105000Y-8621190D01*
X4066905Y-8621190D01*
X4047857Y-8630714D01*
X4038333Y-8640238D01*
X4028809Y-8659286D01*
X4028809Y-8697381D01*
X4038333Y-8716429D01*
X4047857Y-8725952D01*
X4066905Y-8735476D01*
X4105000Y-8735476D01*
X4124048Y-8725952D01*
X4133571Y-8716429D01*
X4143095Y-8697381D01*
X4143095Y-8659286D01*
X4133571Y-8640238D01*
X4124048Y-8630714D01*
X4105000Y-8621190D01*
X4324048Y-8535476D02*
X4228810Y-8535476D01*
X4219286Y-8630714D01*
X4228810Y-8621190D01*
X4247857Y-8611667D01*
X4295476Y-8611667D01*
X4314524Y-8621190D01*
X4324048Y-8630714D01*
X4333571Y-8649762D01*
X4333571Y-8697381D01*
X4324048Y-8716429D01*
X4314524Y-8725952D01*
X4295476Y-8735476D01*
X4247857Y-8735476D01*
X4228810Y-8725952D01*
X4219286Y-8716429D01*
X4457381Y-8535476D02*
X4476429Y-8535476D01*
X4495476Y-8545000D01*
X4505000Y-8554524D01*
X4514524Y-8573571D01*
X4524048Y-8611667D01*
X4524048Y-8659286D01*
X4514524Y-8697381D01*
X4505000Y-8716429D01*
X4495476Y-8725952D01*
X4476429Y-8735476D01*
X4457381Y-8735476D01*
X4438333Y-8725952D01*
X4428810Y-8716429D01*
X4419286Y-8697381D01*
X4409762Y-8659286D01*
X4409762Y-8611667D01*
X4419286Y-8573571D01*
X4428810Y-8554524D01*
X4438333Y-8545000D01*
X4457381Y-8535476D01*
X4609762Y-8735476D02*
X4609762Y-8602143D01*
X4609762Y-8621190D02*
X4619286Y-8611667D01*
X4638333Y-8602143D01*
X4666905Y-8602143D01*
X4685952Y-8611667D01*
X4695476Y-8630714D01*
X4695476Y-8735476D01*
X4695476Y-8630714D02*
X4705000Y-8611667D01*
X4724048Y-8602143D01*
X4752619Y-8602143D01*
X4771667Y-8611667D01*
X4781190Y-8630714D01*
X4781190Y-8735476D01*
X4876429Y-8735476D02*
X4876429Y-8602143D01*
X4876429Y-8621190D02*
X4885952Y-8611667D01*
X4905000Y-8602143D01*
X4933571Y-8602143D01*
X4952619Y-8611667D01*
X4962143Y-8630714D01*
X4962143Y-8735476D01*
X4962143Y-8630714D02*
X4971667Y-8611667D01*
X4990714Y-8602143D01*
X5019286Y-8602143D01*
X5038333Y-8611667D01*
X5047857Y-8630714D01*
X5047857Y-8735476D01*
X5438333Y-8525952D02*
X5266905Y-8783095D01*
X5695476Y-8535476D02*
X5714524Y-8535476D01*
X5733571Y-8545000D01*
X5743095Y-8554524D01*
X5752619Y-8573571D01*
X5762143Y-8611667D01*
X5762143Y-8659286D01*
X5752619Y-8697381D01*
X5743095Y-8716429D01*
X5733571Y-8725952D01*
X5714524Y-8735476D01*
X5695476Y-8735476D01*
X5676428Y-8725952D01*
X5666905Y-8716429D01*
X5657381Y-8697381D01*
X5647857Y-8659286D01*
X5647857Y-8611667D01*
X5657381Y-8573571D01*
X5666905Y-8554524D01*
X5676428Y-8545000D01*
X5695476Y-8535476D01*
X5847857Y-8716429D02*
X5857381Y-8725952D01*
X5847857Y-8735476D01*
X5838333Y-8725952D01*
X5847857Y-8716429D01*
X5847857Y-8735476D01*
X5981190Y-8535476D02*
X6000238Y-8535476D01*
X6019286Y-8545000D01*
X6028809Y-8554524D01*
X6038333Y-8573571D01*
X6047857Y-8611667D01*
X6047857Y-8659286D01*
X6038333Y-8697381D01*
X6028809Y-8716429D01*
X6019286Y-8725952D01*
X6000238Y-8735476D01*
X5981190Y-8735476D01*
X5962143Y-8725952D01*
X5952619Y-8716429D01*
X5943095Y-8697381D01*
X5933571Y-8659286D01*
X5933571Y-8611667D01*
X5943095Y-8573571D01*
X5952619Y-8554524D01*
X5962143Y-8545000D01*
X5981190Y-8535476D01*
X6114524Y-8535476D02*
X6247857Y-8535476D01*
X6162143Y-8735476D01*
X6314524Y-8554524D02*
X6324048Y-8545000D01*
X6343095Y-8535476D01*
X6390714Y-8535476D01*
X6409762Y-8545000D01*
X6419286Y-8554524D01*
X6428809Y-8573571D01*
X6428809Y-8592619D01*
X6419286Y-8621190D01*
X6305000Y-8735476D01*
X6428809Y-8735476D01*
X6543095Y-8621190D02*
X6524048Y-8611667D01*
X6514524Y-8602143D01*
X6505000Y-8583095D01*
X6505000Y-8573571D01*
X6514524Y-8554524D01*
X6524048Y-8545000D01*
X6543095Y-8535476D01*
X6581190Y-8535476D01*
X6600238Y-8545000D01*
X6609762Y-8554524D01*
X6619286Y-8573571D01*
X6619286Y-8583095D01*
X6609762Y-8602143D01*
X6600238Y-8611667D01*
X6581190Y-8621190D01*
X6543095Y-8621190D01*
X6524048Y-8630714D01*
X6514524Y-8640238D01*
X6505000Y-8659286D01*
X6505000Y-8697381D01*
X6514524Y-8716429D01*
X6524048Y-8725952D01*
X6543095Y-8735476D01*
X6581190Y-8735476D01*
X6600238Y-8725952D01*
X6609762Y-8716429D01*
X6619286Y-8697381D01*
X6619286Y-8659286D01*
X6609762Y-8640238D01*
X6600238Y-8630714D01*
X6581190Y-8621190D01*
X6695476Y-8535476D02*
X6695476Y-8573571D01*
X6771667Y-8535476D02*
X6771667Y-8573571D01*
X7066905Y-8811667D02*
X7057381Y-8802143D01*
X7038333Y-8773571D01*
X7028809Y-8754524D01*
X7019286Y-8725952D01*
X7009762Y-8678333D01*
X7009762Y-8640238D01*
X7019286Y-8592619D01*
X7028809Y-8564048D01*
X7038333Y-8545000D01*
X7057381Y-8516429D01*
X7066905Y-8506905D01*
X7228809Y-8602143D02*
X7228809Y-8735476D01*
X7181190Y-8525952D02*
X7133571Y-8668810D01*
X7257381Y-8668810D01*
X7485952Y-8735476D02*
X7485952Y-8535476D01*
X7571667Y-8735476D02*
X7571667Y-8630714D01*
X7562143Y-8611667D01*
X7543095Y-8602143D01*
X7514524Y-8602143D01*
X7495476Y-8611667D01*
X7485952Y-8621190D01*
X7695476Y-8735476D02*
X7676428Y-8725952D01*
X7666905Y-8716429D01*
X7657381Y-8697381D01*
X7657381Y-8640238D01*
X7666905Y-8621190D01*
X7676428Y-8611667D01*
X7695476Y-8602143D01*
X7724048Y-8602143D01*
X7743095Y-8611667D01*
X7752619Y-8621190D01*
X7762143Y-8640238D01*
X7762143Y-8697381D01*
X7752619Y-8716429D01*
X7743095Y-8725952D01*
X7724048Y-8735476D01*
X7695476Y-8735476D01*
X7876428Y-8735476D02*
X7857381Y-8725952D01*
X7847857Y-8706905D01*
X7847857Y-8535476D01*
X8028809Y-8725952D02*
X8009762Y-8735476D01*
X7971667Y-8735476D01*
X7952619Y-8725952D01*
X7943095Y-8706905D01*
X7943095Y-8630714D01*
X7952619Y-8611667D01*
X7971667Y-8602143D01*
X8009762Y-8602143D01*
X8028809Y-8611667D01*
X8038333Y-8630714D01*
X8038333Y-8649762D01*
X7943095Y-8668810D01*
X8114524Y-8725952D02*
X8133571Y-8735476D01*
X8171667Y-8735476D01*
X8190714Y-8725952D01*
X8200238Y-8706905D01*
X8200238Y-8697381D01*
X8190714Y-8678333D01*
X8171667Y-8668810D01*
X8143095Y-8668810D01*
X8124048Y-8659286D01*
X8114524Y-8640238D01*
X8114524Y-8630714D01*
X8124048Y-8611667D01*
X8143095Y-8602143D01*
X8171667Y-8602143D01*
X8190714Y-8611667D01*
X8266905Y-8811667D02*
X8276428Y-8802143D01*
X8295476Y-8773571D01*
X8305000Y-8754524D01*
X8314524Y-8725952D01*
X8324048Y-8678333D01*
X8324048Y-8640238D01*
X8314524Y-8592619D01*
X8305000Y-8564048D01*
X8295476Y-8545000D01*
X8276428Y-8516429D01*
X8266905Y-8506905D01*
X8628810Y-8811667D02*
X8619286Y-8802143D01*
X8600238Y-8773571D01*
X8590714Y-8754524D01*
X8581190Y-8725952D01*
X8571667Y-8678333D01*
X8571667Y-8640238D01*
X8581190Y-8592619D01*
X8590714Y-8564048D01*
X8600238Y-8545000D01*
X8619286Y-8516429D01*
X8628810Y-8506905D01*
X8705000Y-8602143D02*
X8705000Y-8735476D01*
X8705000Y-8621190D02*
X8714524Y-8611667D01*
X8733571Y-8602143D01*
X8762143Y-8602143D01*
X8781190Y-8611667D01*
X8790714Y-8630714D01*
X8790714Y-8735476D01*
X8914524Y-8735476D02*
X8895476Y-8725952D01*
X8885952Y-8716429D01*
X8876429Y-8697381D01*
X8876429Y-8640238D01*
X8885952Y-8621190D01*
X8895476Y-8611667D01*
X8914524Y-8602143D01*
X8943095Y-8602143D01*
X8962143Y-8611667D01*
X8971667Y-8621190D01*
X8981190Y-8640238D01*
X8981190Y-8697381D01*
X8971667Y-8716429D01*
X8962143Y-8725952D01*
X8943095Y-8735476D01*
X8914524Y-8735476D01*
X9038333Y-8602143D02*
X9114524Y-8602143D01*
X9066905Y-8535476D02*
X9066905Y-8706905D01*
X9076429Y-8725952D01*
X9095476Y-8735476D01*
X9114524Y-8735476D01*
X9333571Y-8602143D02*
X9333571Y-8802143D01*
X9333571Y-8611667D02*
X9352619Y-8602143D01*
X9390714Y-8602143D01*
X9409762Y-8611667D01*
X9419286Y-8621190D01*
X9428810Y-8640238D01*
X9428810Y-8697381D01*
X9419286Y-8716429D01*
X9409762Y-8725952D01*
X9390714Y-8735476D01*
X9352619Y-8735476D01*
X9333571Y-8725952D01*
X9543095Y-8735476D02*
X9524048Y-8725952D01*
X9514524Y-8706905D01*
X9514524Y-8535476D01*
X9705000Y-8735476D02*
X9705000Y-8630714D01*
X9695476Y-8611667D01*
X9676429Y-8602143D01*
X9638333Y-8602143D01*
X9619286Y-8611667D01*
X9705000Y-8725952D02*
X9685952Y-8735476D01*
X9638333Y-8735476D01*
X9619286Y-8725952D01*
X9609762Y-8706905D01*
X9609762Y-8687857D01*
X9619286Y-8668810D01*
X9638333Y-8659286D01*
X9685952Y-8659286D01*
X9705000Y-8649762D01*
X9771667Y-8602143D02*
X9847857Y-8602143D01*
X9800238Y-8535476D02*
X9800238Y-8706905D01*
X9809762Y-8725952D01*
X9828810Y-8735476D01*
X9847857Y-8735476D01*
X9990714Y-8725952D02*
X9971667Y-8735476D01*
X9933571Y-8735476D01*
X9914524Y-8725952D01*
X9905000Y-8706905D01*
X9905000Y-8630714D01*
X9914524Y-8611667D01*
X9933571Y-8602143D01*
X9971667Y-8602143D01*
X9990714Y-8611667D01*
X10000238Y-8630714D01*
X10000238Y-8649762D01*
X9905000Y-8668810D01*
X10171667Y-8735476D02*
X10171667Y-8535476D01*
X10171667Y-8725952D02*
X10152619Y-8735476D01*
X10114524Y-8735476D01*
X10095476Y-8725952D01*
X10085952Y-8716429D01*
X10076429Y-8697381D01*
X10076429Y-8640238D01*
X10085952Y-8621190D01*
X10095476Y-8611667D01*
X10114524Y-8602143D01*
X10152619Y-8602143D01*
X10171667Y-8611667D01*
X10247857Y-8811667D02*
X10257381Y-8802143D01*
X10276429Y-8773571D01*
X10285952Y-8754524D01*
X10295476Y-8725952D01*
X10305000Y-8678333D01*
X10305000Y-8640238D01*
X10295476Y-8592619D01*
X10285952Y-8564048D01*
X10276429Y-8545000D01*
X10257381Y-8516429D01*
X10247857Y-8506905D01*
X3495000Y-8950000D02*
G75*
G03*
X3495000Y-8950000I-100000J0D01*
G01*
X3733571Y-8840476D02*
X3857381Y-8840476D01*
X3790714Y-8916667D01*
X3819286Y-8916667D01*
X3838333Y-8926190D01*
X3847857Y-8935714D01*
X3857381Y-8954762D01*
X3857381Y-9002381D01*
X3847857Y-9021429D01*
X3838333Y-9030952D01*
X3819286Y-9040476D01*
X3762143Y-9040476D01*
X3743095Y-9030952D01*
X3733571Y-9021429D01*
X3943095Y-9021429D02*
X3952619Y-9030952D01*
X3943095Y-9040476D01*
X3933571Y-9030952D01*
X3943095Y-9021429D01*
X3943095Y-9040476D01*
X4124048Y-8907143D02*
X4124048Y-9040476D01*
X4076428Y-8830952D02*
X4028809Y-8973810D01*
X4152619Y-8973810D01*
X4324048Y-8840476D02*
X4228810Y-8840476D01*
X4219286Y-8935714D01*
X4228810Y-8926190D01*
X4247857Y-8916667D01*
X4295476Y-8916667D01*
X4314524Y-8926190D01*
X4324048Y-8935714D01*
X4333571Y-8954762D01*
X4333571Y-9002381D01*
X4324048Y-9021429D01*
X4314524Y-9030952D01*
X4295476Y-9040476D01*
X4247857Y-9040476D01*
X4228810Y-9030952D01*
X4219286Y-9021429D01*
X4457381Y-8840476D02*
X4476429Y-8840476D01*
X4495476Y-8850000D01*
X4505000Y-8859524D01*
X4514524Y-8878571D01*
X4524048Y-8916667D01*
X4524048Y-8964286D01*
X4514524Y-9002381D01*
X4505000Y-9021429D01*
X4495476Y-9030952D01*
X4476429Y-9040476D01*
X4457381Y-9040476D01*
X4438333Y-9030952D01*
X4428810Y-9021429D01*
X4419286Y-9002381D01*
X4409762Y-8964286D01*
X4409762Y-8916667D01*
X4419286Y-8878571D01*
X4428810Y-8859524D01*
X4438333Y-8850000D01*
X4457381Y-8840476D01*
X4609762Y-9040476D02*
X4609762Y-8907143D01*
X4609762Y-8926190D02*
X4619286Y-8916667D01*
X4638333Y-8907143D01*
X4666905Y-8907143D01*
X4685952Y-8916667D01*
X4695476Y-8935714D01*
X4695476Y-9040476D01*
X4695476Y-8935714D02*
X4705000Y-8916667D01*
X4724048Y-8907143D01*
X4752619Y-8907143D01*
X4771667Y-8916667D01*
X4781190Y-8935714D01*
X4781190Y-9040476D01*
X4876429Y-9040476D02*
X4876429Y-8907143D01*
X4876429Y-8926190D02*
X4885952Y-8916667D01*
X4905000Y-8907143D01*
X4933571Y-8907143D01*
X4952619Y-8916667D01*
X4962143Y-8935714D01*
X4962143Y-9040476D01*
X4962143Y-8935714D02*
X4971667Y-8916667D01*
X4990714Y-8907143D01*
X5019286Y-8907143D01*
X5038333Y-8916667D01*
X5047857Y-8935714D01*
X5047857Y-9040476D01*
X5438333Y-8830952D02*
X5266905Y-9088095D01*
X5695476Y-8840476D02*
X5714524Y-8840476D01*
X5733571Y-8850000D01*
X5743095Y-8859524D01*
X5752619Y-8878571D01*
X5762143Y-8916667D01*
X5762143Y-8964286D01*
X5752619Y-9002381D01*
X5743095Y-9021429D01*
X5733571Y-9030952D01*
X5714524Y-9040476D01*
X5695476Y-9040476D01*
X5676428Y-9030952D01*
X5666905Y-9021429D01*
X5657381Y-9002381D01*
X5647857Y-8964286D01*
X5647857Y-8916667D01*
X5657381Y-8878571D01*
X5666905Y-8859524D01*
X5676428Y-8850000D01*
X5695476Y-8840476D01*
X5847857Y-9021429D02*
X5857381Y-9030952D01*
X5847857Y-9040476D01*
X5838333Y-9030952D01*
X5847857Y-9021429D01*
X5847857Y-9040476D01*
X6047857Y-9040476D02*
X5933571Y-9040476D01*
X5990714Y-9040476D02*
X5990714Y-8840476D01*
X5971667Y-8869048D01*
X5952619Y-8888095D01*
X5933571Y-8897619D01*
X6114524Y-8840476D02*
X6238333Y-8840476D01*
X6171667Y-8916667D01*
X6200238Y-8916667D01*
X6219286Y-8926190D01*
X6228809Y-8935714D01*
X6238333Y-8954762D01*
X6238333Y-9002381D01*
X6228809Y-9021429D01*
X6219286Y-9030952D01*
X6200238Y-9040476D01*
X6143095Y-9040476D01*
X6124048Y-9030952D01*
X6114524Y-9021429D01*
X6419286Y-8840476D02*
X6324048Y-8840476D01*
X6314524Y-8935714D01*
X6324048Y-8926190D01*
X6343095Y-8916667D01*
X6390714Y-8916667D01*
X6409762Y-8926190D01*
X6419286Y-8935714D01*
X6428809Y-8954762D01*
X6428809Y-9002381D01*
X6419286Y-9021429D01*
X6409762Y-9030952D01*
X6390714Y-9040476D01*
X6343095Y-9040476D01*
X6324048Y-9030952D01*
X6314524Y-9021429D01*
X6543095Y-8926190D02*
X6524048Y-8916667D01*
X6514524Y-8907143D01*
X6505000Y-8888095D01*
X6505000Y-8878571D01*
X6514524Y-8859524D01*
X6524048Y-8850000D01*
X6543095Y-8840476D01*
X6581190Y-8840476D01*
X6600238Y-8850000D01*
X6609762Y-8859524D01*
X6619286Y-8878571D01*
X6619286Y-8888095D01*
X6609762Y-8907143D01*
X6600238Y-8916667D01*
X6581190Y-8926190D01*
X6543095Y-8926190D01*
X6524048Y-8935714D01*
X6514524Y-8945238D01*
X6505000Y-8964286D01*
X6505000Y-9002381D01*
X6514524Y-9021429D01*
X6524048Y-9030952D01*
X6543095Y-9040476D01*
X6581190Y-9040476D01*
X6600238Y-9030952D01*
X6609762Y-9021429D01*
X6619286Y-9002381D01*
X6619286Y-8964286D01*
X6609762Y-8945238D01*
X6600238Y-8935714D01*
X6581190Y-8926190D01*
X6695476Y-8840476D02*
X6695476Y-8878571D01*
X6771667Y-8840476D02*
X6771667Y-8878571D01*
X7066905Y-9116667D02*
X7057381Y-9107143D01*
X7038333Y-9078571D01*
X7028809Y-9059524D01*
X7019286Y-9030952D01*
X7009762Y-8983333D01*
X7009762Y-8945238D01*
X7019286Y-8897619D01*
X7028809Y-8869048D01*
X7038333Y-8850000D01*
X7057381Y-8821429D01*
X7066905Y-8811905D01*
X7133571Y-8859524D02*
X7143095Y-8850000D01*
X7162143Y-8840476D01*
X7209762Y-8840476D01*
X7228809Y-8850000D01*
X7238333Y-8859524D01*
X7247857Y-8878571D01*
X7247857Y-8897619D01*
X7238333Y-8926190D01*
X7124048Y-9040476D01*
X7247857Y-9040476D01*
X7485952Y-9040476D02*
X7485952Y-8840476D01*
X7571667Y-9040476D02*
X7571667Y-8935714D01*
X7562143Y-8916667D01*
X7543095Y-8907143D01*
X7514524Y-8907143D01*
X7495476Y-8916667D01*
X7485952Y-8926190D01*
X7695476Y-9040476D02*
X7676428Y-9030952D01*
X7666905Y-9021429D01*
X7657381Y-9002381D01*
X7657381Y-8945238D01*
X7666905Y-8926190D01*
X7676428Y-8916667D01*
X7695476Y-8907143D01*
X7724048Y-8907143D01*
X7743095Y-8916667D01*
X7752619Y-8926190D01*
X7762143Y-8945238D01*
X7762143Y-9002381D01*
X7752619Y-9021429D01*
X7743095Y-9030952D01*
X7724048Y-9040476D01*
X7695476Y-9040476D01*
X7876428Y-9040476D02*
X7857381Y-9030952D01*
X7847857Y-9011905D01*
X7847857Y-8840476D01*
X8028809Y-9030952D02*
X8009762Y-9040476D01*
X7971667Y-9040476D01*
X7952619Y-9030952D01*
X7943095Y-9011905D01*
X7943095Y-8935714D01*
X7952619Y-8916667D01*
X7971667Y-8907143D01*
X8009762Y-8907143D01*
X8028809Y-8916667D01*
X8038333Y-8935714D01*
X8038333Y-8954762D01*
X7943095Y-8973810D01*
X8114524Y-9030952D02*
X8133571Y-9040476D01*
X8171667Y-9040476D01*
X8190714Y-9030952D01*
X8200238Y-9011905D01*
X8200238Y-9002381D01*
X8190714Y-8983333D01*
X8171667Y-8973810D01*
X8143095Y-8973810D01*
X8124048Y-8964286D01*
X8114524Y-8945238D01*
X8114524Y-8935714D01*
X8124048Y-8916667D01*
X8143095Y-8907143D01*
X8171667Y-8907143D01*
X8190714Y-8916667D01*
X8266905Y-9116667D02*
X8276428Y-9107143D01*
X8295476Y-9078571D01*
X8305000Y-9059524D01*
X8314524Y-9030952D01*
X8324048Y-8983333D01*
X8324048Y-8945238D01*
X8314524Y-8897619D01*
X8305000Y-8869048D01*
X8295476Y-8850000D01*
X8276428Y-8821429D01*
X8266905Y-8811905D01*
X8628810Y-9116667D02*
X8619286Y-9107143D01*
X8600238Y-9078571D01*
X8590714Y-9059524D01*
X8581190Y-9030952D01*
X8571667Y-8983333D01*
X8571667Y-8945238D01*
X8581190Y-8897619D01*
X8590714Y-8869048D01*
X8600238Y-8850000D01*
X8619286Y-8821429D01*
X8628810Y-8811905D01*
X8705000Y-8907143D02*
X8705000Y-9040476D01*
X8705000Y-8926190D02*
X8714524Y-8916667D01*
X8733571Y-8907143D01*
X8762143Y-8907143D01*
X8781190Y-8916667D01*
X8790714Y-8935714D01*
X8790714Y-9040476D01*
X8914524Y-9040476D02*
X8895476Y-9030952D01*
X8885952Y-9021429D01*
X8876429Y-9002381D01*
X8876429Y-8945238D01*
X8885952Y-8926190D01*
X8895476Y-8916667D01*
X8914524Y-8907143D01*
X8943095Y-8907143D01*
X8962143Y-8916667D01*
X8971667Y-8926190D01*
X8981190Y-8945238D01*
X8981190Y-9002381D01*
X8971667Y-9021429D01*
X8962143Y-9030952D01*
X8943095Y-9040476D01*
X8914524Y-9040476D01*
X9038333Y-8907143D02*
X9114524Y-8907143D01*
X9066905Y-8840476D02*
X9066905Y-9011905D01*
X9076429Y-9030952D01*
X9095476Y-9040476D01*
X9114524Y-9040476D01*
X9333571Y-8907143D02*
X9333571Y-9107143D01*
X9333571Y-8916667D02*
X9352619Y-8907143D01*
X9390714Y-8907143D01*
X9409762Y-8916667D01*
X9419286Y-8926190D01*
X9428810Y-8945238D01*
X9428810Y-9002381D01*
X9419286Y-9021429D01*
X9409762Y-9030952D01*
X9390714Y-9040476D01*
X9352619Y-9040476D01*
X9333571Y-9030952D01*
X9543095Y-9040476D02*
X9524048Y-9030952D01*
X9514524Y-9011905D01*
X9514524Y-8840476D01*
X9705000Y-9040476D02*
X9705000Y-8935714D01*
X9695476Y-8916667D01*
X9676429Y-8907143D01*
X9638333Y-8907143D01*
X9619286Y-8916667D01*
X9705000Y-9030952D02*
X9685952Y-9040476D01*
X9638333Y-9040476D01*
X9619286Y-9030952D01*
X9609762Y-9011905D01*
X9609762Y-8992857D01*
X9619286Y-8973810D01*
X9638333Y-8964286D01*
X9685952Y-8964286D01*
X9705000Y-8954762D01*
X9771667Y-8907143D02*
X9847857Y-8907143D01*
X9800238Y-8840476D02*
X9800238Y-9011905D01*
X9809762Y-9030952D01*
X9828810Y-9040476D01*
X9847857Y-9040476D01*
X9990714Y-9030952D02*
X9971667Y-9040476D01*
X9933571Y-9040476D01*
X9914524Y-9030952D01*
X9905000Y-9011905D01*
X9905000Y-8935714D01*
X9914524Y-8916667D01*
X9933571Y-8907143D01*
X9971667Y-8907143D01*
X9990714Y-8916667D01*
X10000238Y-8935714D01*
X10000238Y-8954762D01*
X9905000Y-8973810D01*
X10171667Y-9040476D02*
X10171667Y-8840476D01*
X10171667Y-9030952D02*
X10152619Y-9040476D01*
X10114524Y-9040476D01*
X10095476Y-9030952D01*
X10085952Y-9021429D01*
X10076429Y-9002381D01*
X10076429Y-8945238D01*
X10085952Y-8926190D01*
X10095476Y-8916667D01*
X10114524Y-8907143D01*
X10152619Y-8907143D01*
X10171667Y-8916667D01*
X10247857Y-9116667D02*
X10257381Y-9107143D01*
X10276429Y-9078571D01*
X10285952Y-9059524D01*
X10295476Y-9030952D01*
X10305000Y-8983333D01*
X10305000Y-8945238D01*
X10295476Y-8897619D01*
X10285952Y-8869048D01*
X10276429Y-8850000D01*
X10257381Y-8821429D01*
X10247857Y-8811905D01*
M02*
